<mxfile host="65bd71144e" pages="4">
    <diagram id="RQGdd6fqfEodSHJa2-ea" name="UseCase">
        <mxGraphModel dx="813" dy="652" grid="1" gridSize="10" guides="1" tooltips="1" connect="1" arrows="1" fold="1" page="1" pageScale="1" pageWidth="827" pageHeight="1169" math="0" shadow="0">
            <root>
                <mxCell id="0"/>
                <mxCell id="1" parent="0"/>
                <mxCell id="Kr1RlUPtxJR_STthfC_T-4" style="rounded=0;orthogonalLoop=1;jettySize=auto;html=1;entryX=0;entryY=0.5;entryDx=0;entryDy=0;" parent="1" target="3ftCTU-mfDxe3WDk3o-a-13" edge="1">
                    <mxGeometry relative="1" as="geometry">
                        <mxPoint x="290" y="90" as="sourcePoint"/>
                    </mxGeometry>
                </mxCell>
                <mxCell id="Kr1RlUPtxJR_STthfC_T-5" style="rounded=0;orthogonalLoop=1;jettySize=auto;html=1;entryX=0;entryY=0.5;entryDx=0;entryDy=0;" parent="1" source="3ftCTU-mfDxe3WDk3o-a-4" target="3ftCTU-mfDxe3WDk3o-a-16" edge="1">
                    <mxGeometry relative="1" as="geometry">
                        <mxPoint x="230" y="100" as="sourcePoint"/>
                    </mxGeometry>
                </mxCell>
                <mxCell id="Kr1RlUPtxJR_STthfC_T-6" style="rounded=0;orthogonalLoop=1;jettySize=auto;html=1;entryX=0;entryY=0.5;entryDx=0;entryDy=0;" parent="1" source="3ftCTU-mfDxe3WDk3o-a-4" target="Kr1RlUPtxJR_STthfC_T-18" edge="1">
                    <mxGeometry relative="1" as="geometry">
                        <mxPoint x="260" y="120" as="sourcePoint"/>
                        <mxPoint x="294" y="195" as="targetPoint"/>
                    </mxGeometry>
                </mxCell>
                <mxCell id="Kr1RlUPtxJR_STthfC_T-7" style="rounded=0;orthogonalLoop=1;jettySize=auto;html=1;entryX=1;entryY=0.5;entryDx=0;entryDy=0;" parent="1" source="3ftCTU-mfDxe3WDk3o-a-4" target="Kr1RlUPtxJR_STthfC_T-29" edge="1">
                    <mxGeometry relative="1" as="geometry">
                        <mxPoint x="220" y="110" as="sourcePoint"/>
                        <mxPoint x="129.99999999999955" y="195" as="targetPoint"/>
                    </mxGeometry>
                </mxCell>
                <mxCell id="Kr1RlUPtxJR_STthfC_T-8" style="rounded=0;orthogonalLoop=1;jettySize=auto;html=1;entryX=1;entryY=0.5;entryDx=0;entryDy=0;" parent="1" target="Kr1RlUPtxJR_STthfC_T-26" edge="1">
                    <mxGeometry relative="1" as="geometry">
                        <mxPoint x="250" y="100" as="sourcePoint"/>
                        <mxPoint x="129.99999999999955" y="45" as="targetPoint"/>
                    </mxGeometry>
                </mxCell>
                <mxCell id="Kr1RlUPtxJR_STthfC_T-34" style="rounded=0;orthogonalLoop=1;jettySize=auto;html=1;entryX=1;entryY=0.5;entryDx=0;entryDy=0;" parent="1" target="Kr1RlUPtxJR_STthfC_T-27" edge="1">
                    <mxGeometry relative="1" as="geometry">
                        <mxPoint x="250" y="340" as="sourcePoint"/>
                    </mxGeometry>
                </mxCell>
                <mxCell id="Kr1RlUPtxJR_STthfC_T-36" style="rounded=0;orthogonalLoop=1;jettySize=auto;html=1;entryX=1;entryY=0.5;entryDx=0;entryDy=0;" parent="1" target="Kr1RlUPtxJR_STthfC_T-30" edge="1">
                    <mxGeometry relative="1" as="geometry">
                        <mxPoint x="250" y="360" as="sourcePoint"/>
                    </mxGeometry>
                </mxCell>
                <mxCell id="Kr1RlUPtxJR_STthfC_T-37" style="rounded=0;orthogonalLoop=1;jettySize=auto;html=1;entryX=1;entryY=0.5;entryDx=0;entryDy=0;" parent="1" target="Kr1RlUPtxJR_STthfC_T-31" edge="1">
                    <mxGeometry relative="1" as="geometry">
                        <mxPoint x="250" y="370" as="sourcePoint"/>
                    </mxGeometry>
                </mxCell>
                <mxCell id="Kr1RlUPtxJR_STthfC_T-38" style="rounded=0;orthogonalLoop=1;jettySize=auto;html=1;entryX=0;entryY=0.5;entryDx=0;entryDy=0;" parent="1" target="Kr1RlUPtxJR_STthfC_T-17" edge="1">
                    <mxGeometry relative="1" as="geometry">
                        <mxPoint x="290" y="380" as="sourcePoint"/>
                    </mxGeometry>
                </mxCell>
                <mxCell id="Kr1RlUPtxJR_STthfC_T-39" style="rounded=0;orthogonalLoop=1;jettySize=auto;html=1;entryX=0;entryY=0.5;entryDx=0;entryDy=0;" parent="1" target="Kr1RlUPtxJR_STthfC_T-11" edge="1">
                    <mxGeometry relative="1" as="geometry">
                        <mxPoint x="290" y="370" as="sourcePoint"/>
                    </mxGeometry>
                </mxCell>
                <mxCell id="Kr1RlUPtxJR_STthfC_T-41" style="rounded=0;orthogonalLoop=1;jettySize=auto;html=1;entryX=0;entryY=0.5;entryDx=0;entryDy=0;" parent="1" target="Kr1RlUPtxJR_STthfC_T-10" edge="1">
                    <mxGeometry relative="1" as="geometry">
                        <mxPoint x="290" y="340" as="sourcePoint"/>
                    </mxGeometry>
                </mxCell>
                <mxCell id="3ftCTU-mfDxe3WDk3o-a-8" value="&lt;br&gt;Преподаватель" style="shape=umlActor;verticalLabelPosition=bottom;verticalAlign=top;html=1;outlineConnect=0;fontSize=15;" parent="1" vertex="1">
                    <mxGeometry x="255" y="330" width="30" height="60" as="geometry"/>
                </mxCell>
                <mxCell id="Kr1RlUPtxJR_STthfC_T-59" style="rounded=0;orthogonalLoop=1;jettySize=auto;html=1;entryX=0.5;entryY=0;entryDx=0;entryDy=0;" parent="1" target="Kr1RlUPtxJR_STthfC_T-58" edge="1">
                    <mxGeometry relative="1" as="geometry">
                        <mxPoint x="270" y="690" as="sourcePoint"/>
                    </mxGeometry>
                </mxCell>
                <mxCell id="3ftCTU-mfDxe3WDk3o-a-12" value="&lt;br&gt;Админитратор" style="shape=umlActor;verticalLabelPosition=bottom;verticalAlign=top;html=1;outlineConnect=0;fontSize=15;" parent="1" vertex="1">
                    <mxGeometry x="255" y="630" width="30" height="60" as="geometry"/>
                </mxCell>
                <mxCell id="3ftCTU-mfDxe3WDk3o-a-13" value="Авторизация" style="ellipse;whiteSpace=wrap;html=1;" parent="1" vertex="1">
                    <mxGeometry x="360" y="20" width="175" height="50" as="geometry"/>
                </mxCell>
                <mxCell id="3ftCTU-mfDxe3WDk3o-a-16" value="Сдача теста" style="ellipse;whiteSpace=wrap;html=1;" parent="1" vertex="1">
                    <mxGeometry x="360" y="90" width="175" height="50" as="geometry"/>
                </mxCell>
                <mxCell id="Kr1RlUPtxJR_STthfC_T-10" value="Авторизация" style="ellipse;whiteSpace=wrap;html=1;" parent="1" vertex="1">
                    <mxGeometry x="360" y="270" width="175" height="50" as="geometry"/>
                </mxCell>
                <mxCell id="Kr1RlUPtxJR_STthfC_T-11" value="Посмотр результатов" style="ellipse;whiteSpace=wrap;html=1;" parent="1" vertex="1">
                    <mxGeometry x="357.5" y="350" width="175" height="50" as="geometry"/>
                </mxCell>
                <mxCell id="Kr1RlUPtxJR_STthfC_T-17" value="&amp;nbsp; &amp;nbsp;Редактирование информации о вопросах" style="ellipse;whiteSpace=wrap;html=1;" parent="1" vertex="1">
                    <mxGeometry x="360" y="420" width="175" height="50" as="geometry"/>
                </mxCell>
                <mxCell id="Kr1RlUPtxJR_STthfC_T-18" value="Посмотр своих результатов" style="ellipse;whiteSpace=wrap;html=1;" parent="1" vertex="1">
                    <mxGeometry x="360" y="160" width="175" height="50" as="geometry"/>
                </mxCell>
                <mxCell id="Kr1RlUPtxJR_STthfC_T-26" value="Выход" style="ellipse;whiteSpace=wrap;html=1;" parent="1" vertex="1">
                    <mxGeometry y="40" width="175" height="50" as="geometry"/>
                </mxCell>
                <mxCell id="Kr1RlUPtxJR_STthfC_T-27" value="Выход" style="ellipse;whiteSpace=wrap;html=1;" parent="1" vertex="1">
                    <mxGeometry y="270" width="175" height="50" as="geometry"/>
                </mxCell>
                <mxCell id="Kr1RlUPtxJR_STthfC_T-29" value="Изменение своя пароля" style="ellipse;whiteSpace=wrap;html=1;" parent="1" vertex="1">
                    <mxGeometry y="130" width="175" height="50" as="geometry"/>
                </mxCell>
                <mxCell id="Kr1RlUPtxJR_STthfC_T-30" value="Изменение своя пароля" style="ellipse;whiteSpace=wrap;html=1;" parent="1" vertex="1">
                    <mxGeometry x="7.5" y="350" width="175" height="50" as="geometry"/>
                </mxCell>
                <mxCell id="Kr1RlUPtxJR_STthfC_T-31" value="&amp;nbsp; &amp;nbsp;Редактирование информации &lt;br&gt;о тестах" style="ellipse;whiteSpace=wrap;html=1;" parent="1" vertex="1">
                    <mxGeometry x="7.5" y="420" width="175" height="50" as="geometry"/>
                </mxCell>
                <mxCell id="3ftCTU-mfDxe3WDk3o-a-4" value="Студент" style="shape=umlActor;verticalLabelPosition=bottom;verticalAlign=top;html=1;outlineConnect=0;fontSize=15;" parent="1" vertex="1">
                    <mxGeometry x="255" y="70" width="30" height="60" as="geometry"/>
                </mxCell>
                <mxCell id="Kr1RlUPtxJR_STthfC_T-42" style="rounded=0;orthogonalLoop=1;jettySize=auto;html=1;entryX=1;entryY=0.5;entryDx=0;entryDy=0;" parent="1" target="Kr1RlUPtxJR_STthfC_T-54" edge="1">
                    <mxGeometry relative="1" as="geometry">
                        <mxPoint x="250" y="637.5" as="sourcePoint"/>
                    </mxGeometry>
                </mxCell>
                <mxCell id="Kr1RlUPtxJR_STthfC_T-43" style="rounded=0;orthogonalLoop=1;jettySize=auto;html=1;entryX=1;entryY=0.5;entryDx=0;entryDy=0;" parent="1" target="Kr1RlUPtxJR_STthfC_T-55" edge="1">
                    <mxGeometry relative="1" as="geometry">
                        <mxPoint x="250" y="647.5" as="sourcePoint"/>
                    </mxGeometry>
                </mxCell>
                <mxCell id="Kr1RlUPtxJR_STthfC_T-44" style="rounded=0;orthogonalLoop=1;jettySize=auto;html=1;entryX=1;entryY=0.5;entryDx=0;entryDy=0;" parent="1" target="Kr1RlUPtxJR_STthfC_T-56" edge="1">
                    <mxGeometry relative="1" as="geometry">
                        <mxPoint x="250" y="657.5" as="sourcePoint"/>
                    </mxGeometry>
                </mxCell>
                <mxCell id="Kr1RlUPtxJR_STthfC_T-45" style="rounded=0;orthogonalLoop=1;jettySize=auto;html=1;entryX=1;entryY=0.5;entryDx=0;entryDy=0;" parent="1" target="Kr1RlUPtxJR_STthfC_T-57" edge="1">
                    <mxGeometry relative="1" as="geometry">
                        <mxPoint x="250" y="667.5" as="sourcePoint"/>
                    </mxGeometry>
                </mxCell>
                <mxCell id="Kr1RlUPtxJR_STthfC_T-46" style="rounded=0;orthogonalLoop=1;jettySize=auto;html=1;entryX=0;entryY=0.5;entryDx=0;entryDy=0;" parent="1" target="Kr1RlUPtxJR_STthfC_T-52" edge="1">
                    <mxGeometry relative="1" as="geometry">
                        <mxPoint x="290" y="677.5" as="sourcePoint"/>
                    </mxGeometry>
                </mxCell>
                <mxCell id="Kr1RlUPtxJR_STthfC_T-47" style="rounded=0;orthogonalLoop=1;jettySize=auto;html=1;entryX=0;entryY=0.5;entryDx=0;entryDy=0;" parent="1" target="Kr1RlUPtxJR_STthfC_T-51" edge="1">
                    <mxGeometry relative="1" as="geometry">
                        <mxPoint x="290" y="667.5" as="sourcePoint"/>
                    </mxGeometry>
                </mxCell>
                <mxCell id="Kr1RlUPtxJR_STthfC_T-48" style="rounded=0;orthogonalLoop=1;jettySize=auto;html=1;entryX=0;entryY=0.5;entryDx=0;entryDy=0;" parent="1" target="Kr1RlUPtxJR_STthfC_T-53" edge="1">
                    <mxGeometry relative="1" as="geometry">
                        <mxPoint x="290" y="647.5" as="sourcePoint"/>
                    </mxGeometry>
                </mxCell>
                <mxCell id="Kr1RlUPtxJR_STthfC_T-49" style="rounded=0;orthogonalLoop=1;jettySize=auto;html=1;entryX=0;entryY=0.5;entryDx=0;entryDy=0;" parent="1" target="Kr1RlUPtxJR_STthfC_T-50" edge="1">
                    <mxGeometry relative="1" as="geometry">
                        <mxPoint x="290" y="637.5" as="sourcePoint"/>
                    </mxGeometry>
                </mxCell>
                <mxCell id="Kr1RlUPtxJR_STthfC_T-50" value="Авторизация" style="ellipse;whiteSpace=wrap;html=1;" parent="1" vertex="1">
                    <mxGeometry x="360" y="517.5" width="175" height="50" as="geometry"/>
                </mxCell>
                <mxCell id="Kr1RlUPtxJR_STthfC_T-51" value="Посмотр результатов" style="ellipse;whiteSpace=wrap;html=1;" parent="1" vertex="1">
                    <mxGeometry x="360" y="660" width="175" height="50" as="geometry"/>
                </mxCell>
                <mxCell id="Kr1RlUPtxJR_STthfC_T-52" value="&amp;nbsp; &amp;nbsp;Редактирование информации о вопросах" style="ellipse;whiteSpace=wrap;html=1;" parent="1" vertex="1">
                    <mxGeometry x="360" y="730" width="175" height="50" as="geometry"/>
                </mxCell>
                <mxCell id="Kr1RlUPtxJR_STthfC_T-53" value="&lt;font style=&quot;font-size: 11px;&quot;&gt;&amp;nbsp; &amp;nbsp;Редактирование &lt;br&gt;информации о аккаунтах других пользователей&lt;/font&gt;" style="ellipse;whiteSpace=wrap;html=1;" parent="1" vertex="1">
                    <mxGeometry x="360" y="585" width="175" height="50" as="geometry"/>
                </mxCell>
                <mxCell id="Kr1RlUPtxJR_STthfC_T-54" value="Выход" style="ellipse;whiteSpace=wrap;html=1;" parent="1" vertex="1">
                    <mxGeometry y="535" width="175" height="50" as="geometry"/>
                </mxCell>
                <mxCell id="Kr1RlUPtxJR_STthfC_T-55" value="&amp;nbsp; &amp;nbsp;Редактирование информации о прематах" style="ellipse;whiteSpace=wrap;html=1;" parent="1" vertex="1">
                    <mxGeometry y="597.5" width="175" height="50" as="geometry"/>
                </mxCell>
                <mxCell id="Kr1RlUPtxJR_STthfC_T-56" value="Изменение своя пароля" style="ellipse;whiteSpace=wrap;html=1;" parent="1" vertex="1">
                    <mxGeometry y="660" width="175" height="50" as="geometry"/>
                </mxCell>
                <mxCell id="Kr1RlUPtxJR_STthfC_T-57" value="&amp;nbsp; &amp;nbsp;Редактирование информации &lt;br&gt;о тестах" style="ellipse;whiteSpace=wrap;html=1;" parent="1" vertex="1">
                    <mxGeometry y="720" width="175" height="50" as="geometry"/>
                </mxCell>
                <mxCell id="Kr1RlUPtxJR_STthfC_T-58" value="&lt;font style=&quot;font-size: 11px;&quot;&gt;Сброс пароля аккаунтов студентов и преподавателей&lt;/font&gt;" style="ellipse;whiteSpace=wrap;html=1;" parent="1" vertex="1">
                    <mxGeometry x="182.5" y="780" width="175" height="50" as="geometry"/>
                </mxCell>
            </root>
        </mxGraphModel>
    </diagram>
    <diagram name="ER" id="CW89SDz0Yp15rdSrfndy">
        <mxGraphModel dx="813" dy="1821" grid="1" gridSize="10" guides="1" tooltips="1" connect="1" arrows="1" fold="1" page="1" pageScale="1" pageWidth="827" pageHeight="1169" math="0" shadow="0">
            <root>
                <mxCell id="0"/>
                <mxCell id="1" parent="0"/>
                <mxCell id="pjsk4hDIpkxzrD38mWm5-4" style="edgeStyle=orthogonalEdgeStyle;rounded=0;orthogonalLoop=1;jettySize=auto;html=1;exitX=0.5;exitY=0;exitDx=0;exitDy=0;entryX=0;entryY=0.5;entryDx=0;entryDy=0;endArrow=none;endFill=0;" parent="1" source="Yi3x_WQhOzdSuFtVi5h6-1" target="phxBqzFeAZvSib8nZq2B-6" edge="1">
                    <mxGeometry relative="1" as="geometry">
                        <mxPoint x="940" y="140" as="sourcePoint"/>
                        <Array as="points">
                            <mxPoint x="980" y="150"/>
                            <mxPoint x="980" y="150"/>
                        </Array>
                    </mxGeometry>
                </mxCell>
                <mxCell id="Yi3x_WQhOzdSuFtVi5h6-1" value="Предмет&lt;br&gt;" style="rounded=0;whiteSpace=wrap;html=1;" parent="1" vertex="1">
                    <mxGeometry x="920" y="160" width="120" height="60" as="geometry"/>
                </mxCell>
                <mxCell id="pjsk4hDIpkxzrD38mWm5-5" style="edgeStyle=orthogonalEdgeStyle;rounded=0;orthogonalLoop=1;jettySize=auto;html=1;exitX=0;exitY=0.5;exitDx=0;exitDy=0;entryX=0;entryY=0.5;entryDx=0;entryDy=0;endArrow=none;endFill=0;" parent="1" source="Yi3x_WQhOzdSuFtVi5h6-2" target="phxBqzFeAZvSib8nZq2B-26" edge="1">
                    <mxGeometry relative="1" as="geometry">
                        <Array as="points">
                            <mxPoint x="400" y="380"/>
                        </Array>
                    </mxGeometry>
                </mxCell>
                <mxCell id="pjsk4hDIpkxzrD38mWm5-17" style="edgeStyle=orthogonalEdgeStyle;rounded=0;orthogonalLoop=1;jettySize=auto;html=1;exitX=1;exitY=0.5;exitDx=0;exitDy=0;entryX=0;entryY=0.5;entryDx=0;entryDy=0;entryPerimeter=0;endArrow=none;endFill=0;" parent="1" source="Yi3x_WQhOzdSuFtVi5h6-2" target="pjsk4hDIpkxzrD38mWm5-16" edge="1">
                    <mxGeometry relative="1" as="geometry"/>
                </mxCell>
                <mxCell id="Yi3x_WQhOzdSuFtVi5h6-2" value="Вопрос" style="rounded=0;whiteSpace=wrap;html=1;" parent="1" vertex="1">
                    <mxGeometry x="440" y="350" width="120" height="60" as="geometry"/>
                </mxCell>
                <mxCell id="pjsk4hDIpkxzrD38mWm5-7" style="edgeStyle=orthogonalEdgeStyle;rounded=0;orthogonalLoop=1;jettySize=auto;html=1;exitX=0.5;exitY=0;exitDx=0;exitDy=0;entryX=0;entryY=0.5;entryDx=0;entryDy=0;endArrow=none;endFill=0;" parent="1" source="Yi3x_WQhOzdSuFtVi5h6-3" target="pjsk4hDIpkxzrD38mWm5-25" edge="1">
                    <mxGeometry relative="1" as="geometry">
                        <mxPoint x="760" y="-230" as="targetPoint"/>
                        <Array as="points">
                            <mxPoint x="700" y="-50"/>
                            <mxPoint x="700" y="-50"/>
                        </Array>
                    </mxGeometry>
                </mxCell>
                <mxCell id="pjsk4hDIpkxzrD38mWm5-31" style="edgeStyle=orthogonalEdgeStyle;rounded=0;orthogonalLoop=1;jettySize=auto;html=1;exitX=1;exitY=0.5;exitDx=0;exitDy=0;entryX=0;entryY=0.5;entryDx=0;entryDy=0;endArrow=none;endFill=0;" parent="1" source="Yi3x_WQhOzdSuFtVi5h6-3" target="pjsk4hDIpkxzrD38mWm5-27" edge="1">
                    <mxGeometry relative="1" as="geometry"/>
                </mxCell>
                <mxCell id="Yi3x_WQhOzdSuFtVi5h6-3" value="Тест" style="rounded=0;whiteSpace=wrap;html=1;" parent="1" vertex="1">
                    <mxGeometry x="640" y="160" width="120" height="60" as="geometry"/>
                </mxCell>
                <mxCell id="pjsk4hDIpkxzrD38mWm5-14" style="edgeStyle=orthogonalEdgeStyle;rounded=0;orthogonalLoop=1;jettySize=auto;html=1;exitX=1;exitY=0.5;exitDx=0;exitDy=0;entryX=0;entryY=0.5;entryDx=0;entryDy=0;endArrow=none;endFill=0;" parent="1" source="pjsk4hDIpkxzrD38mWm5-38" target="pjsk4hDIpkxzrD38mWm5-13" edge="1">
                    <mxGeometry relative="1" as="geometry">
                        <mxPoint x="560" y="190" as="sourcePoint"/>
                    </mxGeometry>
                </mxCell>
                <mxCell id="pjsk4hDIpkxzrD38mWm5-1" style="edgeStyle=orthogonalEdgeStyle;rounded=0;orthogonalLoop=1;jettySize=auto;html=1;endArrow=none;endFill=0;entryX=1;entryY=0.5;entryDx=0;entryDy=0;exitX=0.5;exitY=0;exitDx=0;exitDy=0;" parent="1" source="Yi3x_WQhOzdSuFtVi5h6-6" target="phxBqzFeAZvSib8nZq2B-4" edge="1">
                    <mxGeometry relative="1" as="geometry">
                        <mxPoint x="40" y="-230" as="targetPoint"/>
                        <Array as="points">
                            <mxPoint x="140" y="60"/>
                            <mxPoint x="140" y="60"/>
                        </Array>
                    </mxGeometry>
                </mxCell>
                <mxCell id="pjsk4hDIpkxzrD38mWm5-11" style="edgeStyle=orthogonalEdgeStyle;rounded=0;orthogonalLoop=1;jettySize=auto;html=1;exitX=1;exitY=0.5;exitDx=0;exitDy=0;entryX=0;entryY=0.5;entryDx=0;entryDy=0;endArrow=none;endFill=0;" parent="1" source="Yi3x_WQhOzdSuFtVi5h6-6" target="pjsk4hDIpkxzrD38mWm5-9" edge="1">
                    <mxGeometry relative="1" as="geometry"/>
                </mxCell>
                <mxCell id="Yi3x_WQhOzdSuFtVi5h6-6" value="Пользователь" style="rounded=0;whiteSpace=wrap;html=1;" parent="1" vertex="1">
                    <mxGeometry x="80" y="160" width="120" height="60" as="geometry"/>
                </mxCell>
                <mxCell id="phxBqzFeAZvSib8nZq2B-2" value="login" style="ellipse;whiteSpace=wrap;html=1;" parent="1" vertex="1">
                    <mxGeometry x="20" y="-20" width="120" height="60" as="geometry"/>
                </mxCell>
                <mxCell id="phxBqzFeAZvSib8nZq2B-3" value="password" style="ellipse;whiteSpace=wrap;html=1;" parent="1" vertex="1">
                    <mxGeometry x="140" y="-20" width="120" height="60" as="geometry"/>
                </mxCell>
                <mxCell id="phxBqzFeAZvSib8nZq2B-4" value="role" style="ellipse;whiteSpace=wrap;html=1;" parent="1" vertex="1">
                    <mxGeometry x="20" y="-100" width="120" height="60" as="geometry"/>
                </mxCell>
                <mxCell id="phxBqzFeAZvSib8nZq2B-5" value="name" style="ellipse;whiteSpace=wrap;html=1;" parent="1" vertex="1">
                    <mxGeometry x="140" y="60" width="120" height="60" as="geometry"/>
                </mxCell>
                <mxCell id="phxBqzFeAZvSib8nZq2B-6" value="name" style="ellipse;whiteSpace=wrap;html=1;" parent="1" vertex="1">
                    <mxGeometry x="860" y="-20" width="120" height="60" as="geometry"/>
                </mxCell>
                <mxCell id="phxBqzFeAZvSib8nZq2B-7" value="id_subject" style="ellipse;whiteSpace=wrap;html=1;" parent="1" vertex="1">
                    <mxGeometry x="860" y="60" width="120" height="60" as="geometry"/>
                </mxCell>
                <mxCell id="phxBqzFeAZvSib8nZq2B-23" value="id_question" style="ellipse;whiteSpace=wrap;html=1;" parent="1" vertex="1">
                    <mxGeometry x="280" y="440" width="120" height="60" as="geometry"/>
                </mxCell>
                <mxCell id="phxBqzFeAZvSib8nZq2B-24" value="id_subject" style="ellipse;whiteSpace=wrap;html=1;" parent="1" vertex="1">
                    <mxGeometry x="400" y="440" width="120" height="60" as="geometry"/>
                </mxCell>
                <mxCell id="phxBqzFeAZvSib8nZq2B-25" value="question" style="ellipse;whiteSpace=wrap;html=1;" parent="1" vertex="1">
                    <mxGeometry x="280" y="520" width="120" height="60" as="geometry"/>
                </mxCell>
                <mxCell id="phxBqzFeAZvSib8nZq2B-26" value="answer" style="ellipse;whiteSpace=wrap;html=1;" parent="1" vertex="1">
                    <mxGeometry x="400" y="680" width="120" height="60" as="geometry"/>
                </mxCell>
                <mxCell id="phxBqzFeAZvSib8nZq2B-27" value="answer4" style="ellipse;whiteSpace=wrap;html=1;" parent="1" vertex="1">
                    <mxGeometry x="280" y="680" width="120" height="60" as="geometry"/>
                </mxCell>
                <mxCell id="phxBqzFeAZvSib8nZq2B-28" value="answer3" style="ellipse;whiteSpace=wrap;html=1;" parent="1" vertex="1">
                    <mxGeometry x="400" y="600" width="120" height="60" as="geometry"/>
                </mxCell>
                <mxCell id="phxBqzFeAZvSib8nZq2B-29" value="answer2" style="ellipse;whiteSpace=wrap;html=1;" parent="1" vertex="1">
                    <mxGeometry x="280" y="600" width="120" height="60" as="geometry"/>
                </mxCell>
                <mxCell id="phxBqzFeAZvSib8nZq2B-30" value="answer1" style="ellipse;whiteSpace=wrap;html=1;" parent="1" vertex="1">
                    <mxGeometry x="400" y="520" width="120" height="60" as="geometry"/>
                </mxCell>
                <mxCell id="pjsk4hDIpkxzrD38mWm5-12" style="edgeStyle=orthogonalEdgeStyle;rounded=0;orthogonalLoop=1;jettySize=auto;html=1;exitX=1;exitY=0.5;exitDx=0;exitDy=0;entryX=0;entryY=0.5;entryDx=0;entryDy=0;endArrow=none;endFill=0;" parent="1" source="pjsk4hDIpkxzrD38mWm5-9" edge="1">
                    <mxGeometry relative="1" as="geometry">
                        <mxPoint x="440" y="190" as="targetPoint"/>
                    </mxGeometry>
                </mxCell>
                <mxCell id="pjsk4hDIpkxzrD38mWm5-9" value="Имеет" style="rhombus;whiteSpace=wrap;html=1;" parent="1" vertex="1">
                    <mxGeometry x="240" y="150" width="80" height="80" as="geometry"/>
                </mxCell>
                <mxCell id="pjsk4hDIpkxzrD38mWm5-15" style="edgeStyle=orthogonalEdgeStyle;rounded=0;orthogonalLoop=1;jettySize=auto;html=1;exitX=1;exitY=0.5;exitDx=0;exitDy=0;entryX=0;entryY=0.5;entryDx=0;entryDy=0;endArrow=none;endFill=0;" parent="1" source="pjsk4hDIpkxzrD38mWm5-13" target="Yi3x_WQhOzdSuFtVi5h6-3" edge="1">
                    <mxGeometry relative="1" as="geometry"/>
                </mxCell>
                <mxCell id="pjsk4hDIpkxzrD38mWm5-13" value="Из" style="rhombus;whiteSpace=wrap;html=1;" parent="1" vertex="1">
                    <mxGeometry x="520" y="150" width="80" height="80" as="geometry"/>
                </mxCell>
                <mxCell id="pjsk4hDIpkxzrD38mWm5-18" style="edgeStyle=orthogonalEdgeStyle;rounded=0;orthogonalLoop=1;jettySize=auto;html=1;exitX=0.5;exitY=0;exitDx=0;exitDy=0;entryX=0.5;entryY=1;entryDx=0;entryDy=0;endArrow=none;endFill=0;" parent="1" source="pjsk4hDIpkxzrD38mWm5-16" target="Yi3x_WQhOzdSuFtVi5h6-3" edge="1">
                    <mxGeometry relative="1" as="geometry"/>
                </mxCell>
                <mxCell id="pjsk4hDIpkxzrD38mWm5-16" value="Приладлежит" style="rhombus;whiteSpace=wrap;html=1;" parent="1" vertex="1">
                    <mxGeometry x="650" y="330" width="100" height="100" as="geometry"/>
                </mxCell>
                <mxCell id="pjsk4hDIpkxzrD38mWm5-20" value="id_exam" style="ellipse;whiteSpace=wrap;html=1;direction=west;flipV=1;flipH=0;" parent="1" vertex="1">
                    <mxGeometry x="580" y="60" width="120" height="60" as="geometry"/>
                </mxCell>
                <mxCell id="pjsk4hDIpkxzrD38mWm5-21" value="id_subject" style="ellipse;whiteSpace=wrap;html=1;direction=west;flipV=1;flipH=0;" parent="1" vertex="1">
                    <mxGeometry x="700" y="60" width="120" height="60" as="geometry"/>
                </mxCell>
                <mxCell id="pjsk4hDIpkxzrD38mWm5-22" value="name_exam" style="ellipse;whiteSpace=wrap;html=1;direction=west;flipV=1;flipH=0;" parent="1" vertex="1">
                    <mxGeometry x="580" y="-20" width="120" height="60" as="geometry"/>
                </mxCell>
                <mxCell id="pjsk4hDIpkxzrD38mWm5-25" value="duration" style="ellipse;whiteSpace=wrap;html=1;direction=west;flipV=1;flipH=0;" parent="1" vertex="1">
                    <mxGeometry x="580" y="-100" width="120" height="60" as="geometry"/>
                </mxCell>
                <mxCell id="pjsk4hDIpkxzrD38mWm5-26" value="code_exam" style="ellipse;whiteSpace=wrap;html=1;direction=west;flipV=1;flipH=0;" parent="1" vertex="1">
                    <mxGeometry x="700" y="-20" width="120" height="60" as="geometry"/>
                </mxCell>
                <mxCell id="pjsk4hDIpkxzrD38mWm5-30" style="edgeStyle=orthogonalEdgeStyle;rounded=0;orthogonalLoop=1;jettySize=auto;html=1;exitX=1;exitY=0.5;exitDx=0;exitDy=0;entryX=0;entryY=0.5;entryDx=0;entryDy=0;endArrow=none;endFill=0;" parent="1" source="pjsk4hDIpkxzrD38mWm5-27" target="Yi3x_WQhOzdSuFtVi5h6-1" edge="1">
                    <mxGeometry relative="1" as="geometry"/>
                </mxCell>
                <mxCell id="pjsk4hDIpkxzrD38mWm5-27" value="Из" style="rhombus;whiteSpace=wrap;html=1;" parent="1" vertex="1">
                    <mxGeometry x="800" y="150" width="80" height="80" as="geometry"/>
                </mxCell>
                <mxCell id="pjsk4hDIpkxzrD38mWm5-38" value="Результат" style="rounded=0;whiteSpace=wrap;html=1;" parent="1" vertex="1">
                    <mxGeometry x="360" y="160" width="120" height="60" as="geometry"/>
                </mxCell>
                <mxCell id="pjsk4hDIpkxzrD38mWm5-39" style="edgeStyle=orthogonalEdgeStyle;rounded=0;orthogonalLoop=1;jettySize=auto;html=1;exitX=0.5;exitY=0;exitDx=0;exitDy=0;entryX=0;entryY=0.5;entryDx=0;entryDy=0;endArrow=none;endFill=0;" parent="1" source="pjsk4hDIpkxzrD38mWm5-38" edge="1">
                    <mxGeometry relative="1" as="geometry">
                        <mxPoint x="420" y="-150" as="targetPoint"/>
                        <Array as="points">
                            <mxPoint x="420" y="-60"/>
                            <mxPoint x="420" y="-60"/>
                        </Array>
                    </mxGeometry>
                </mxCell>
                <mxCell id="pjsk4hDIpkxzrD38mWm5-40" value="id_result" style="ellipse;whiteSpace=wrap;html=1;" parent="1" vertex="1">
                    <mxGeometry x="300" y="60" width="120" height="60" as="geometry"/>
                </mxCell>
                <mxCell id="pjsk4hDIpkxzrD38mWm5-41" value="id_exam" style="ellipse;whiteSpace=wrap;html=1;" parent="1" vertex="1">
                    <mxGeometry x="420" y="-20" width="120" height="60" as="geometry"/>
                </mxCell>
                <mxCell id="pjsk4hDIpkxzrD38mWm5-42" value="endTime" style="ellipse;whiteSpace=wrap;html=1;" parent="1" vertex="1">
                    <mxGeometry x="420" y="-100" width="120" height="60" as="geometry"/>
                </mxCell>
                <mxCell id="pjsk4hDIpkxzrD38mWm5-43" value="startTime" style="ellipse;whiteSpace=wrap;html=1;" parent="1" vertex="1">
                    <mxGeometry x="300" y="-100" width="120" height="60" as="geometry"/>
                </mxCell>
                <mxCell id="pjsk4hDIpkxzrD38mWm5-44" value="id_user" style="ellipse;whiteSpace=wrap;html=1;" parent="1" vertex="1">
                    <mxGeometry x="300" y="-20" width="120" height="60" as="geometry"/>
                </mxCell>
                <mxCell id="pjsk4hDIpkxzrD38mWm5-45" value="score" style="ellipse;whiteSpace=wrap;html=1;" parent="1" vertex="1">
                    <mxGeometry x="300" y="-180" width="120" height="60" as="geometry"/>
                </mxCell>
                <mxCell id="pjsk4hDIpkxzrD38mWm5-46" value="totalScore" style="ellipse;whiteSpace=wrap;html=1;" parent="1" vertex="1">
                    <mxGeometry x="420" y="-180" width="120" height="60" as="geometry"/>
                </mxCell>
                <mxCell id="pjsk4hDIpkxzrD38mWm5-57" value="id_user" style="ellipse;whiteSpace=wrap;html=1;" parent="1" vertex="1">
                    <mxGeometry x="20" y="60" width="120" height="60" as="geometry"/>
                </mxCell>
            </root>
        </mxGraphModel>
    </diagram>
    <diagram id="GHJXB67E1Q2b-pnTfeim" name="database">
        <mxGraphModel dx="1372" dy="804" grid="1" gridSize="10" guides="1" tooltips="1" connect="1" arrows="1" fold="1" page="1" pageScale="1" pageWidth="827" pageHeight="1169" math="0" shadow="0">
            <root>
                <mxCell id="0"/>
                <mxCell id="1" parent="0"/>
                <mxCell id="8Q1FjQBe_nR1ZShGfoch-3" value="Users&lt;br&gt;" style="shape=table;startSize=30;container=1;collapsible=1;childLayout=tableLayout;fixedRows=1;rowLines=0;fontStyle=1;align=center;resizeLast=1;html=1;" vertex="1" parent="1">
                    <mxGeometry y="80" width="160" height="180" as="geometry"/>
                </mxCell>
                <mxCell id="8Q1FjQBe_nR1ZShGfoch-4" value="" style="shape=tableRow;horizontal=0;startSize=0;swimlaneHead=0;swimlaneBody=0;fillColor=none;collapsible=0;dropTarget=0;points=[[0,0.5],[1,0.5]];portConstraint=eastwest;top=0;left=0;right=0;bottom=1;" vertex="1" parent="8Q1FjQBe_nR1ZShGfoch-3">
                    <mxGeometry y="30" width="160" height="30" as="geometry"/>
                </mxCell>
                <mxCell id="8Q1FjQBe_nR1ZShGfoch-5" value="PK" style="shape=partialRectangle;connectable=0;fillColor=none;top=0;left=0;bottom=0;right=0;fontStyle=1;overflow=hidden;whiteSpace=wrap;html=1;" vertex="1" parent="8Q1FjQBe_nR1ZShGfoch-4">
                    <mxGeometry width="30" height="30" as="geometry">
                        <mxRectangle width="30" height="30" as="alternateBounds"/>
                    </mxGeometry>
                </mxCell>
                <mxCell id="8Q1FjQBe_nR1ZShGfoch-6" value="id" style="shape=partialRectangle;connectable=0;fillColor=none;top=0;left=0;bottom=0;right=0;align=left;spacingLeft=6;fontStyle=5;overflow=hidden;whiteSpace=wrap;html=1;" vertex="1" parent="8Q1FjQBe_nR1ZShGfoch-4">
                    <mxGeometry x="30" width="130" height="30" as="geometry">
                        <mxRectangle width="130" height="30" as="alternateBounds"/>
                    </mxGeometry>
                </mxCell>
                <mxCell id="8Q1FjQBe_nR1ZShGfoch-7" value="" style="shape=tableRow;horizontal=0;startSize=0;swimlaneHead=0;swimlaneBody=0;fillColor=none;collapsible=0;dropTarget=0;points=[[0,0.5],[1,0.5]];portConstraint=eastwest;top=0;left=0;right=0;bottom=0;" vertex="1" parent="8Q1FjQBe_nR1ZShGfoch-3">
                    <mxGeometry y="60" width="160" height="30" as="geometry"/>
                </mxCell>
                <mxCell id="8Q1FjQBe_nR1ZShGfoch-8" value="" style="shape=partialRectangle;connectable=0;fillColor=none;top=0;left=0;bottom=0;right=0;editable=1;overflow=hidden;whiteSpace=wrap;html=1;" vertex="1" parent="8Q1FjQBe_nR1ZShGfoch-7">
                    <mxGeometry width="30" height="30" as="geometry">
                        <mxRectangle width="30" height="30" as="alternateBounds"/>
                    </mxGeometry>
                </mxCell>
                <mxCell id="8Q1FjQBe_nR1ZShGfoch-9" value="username" style="shape=partialRectangle;connectable=0;fillColor=none;top=0;left=0;bottom=0;right=0;align=left;spacingLeft=6;overflow=hidden;whiteSpace=wrap;html=1;" vertex="1" parent="8Q1FjQBe_nR1ZShGfoch-7">
                    <mxGeometry x="30" width="130" height="30" as="geometry">
                        <mxRectangle width="130" height="30" as="alternateBounds"/>
                    </mxGeometry>
                </mxCell>
                <mxCell id="8Q1FjQBe_nR1ZShGfoch-10" value="" style="shape=tableRow;horizontal=0;startSize=0;swimlaneHead=0;swimlaneBody=0;fillColor=none;collapsible=0;dropTarget=0;points=[[0,0.5],[1,0.5]];portConstraint=eastwest;top=0;left=0;right=0;bottom=0;" vertex="1" parent="8Q1FjQBe_nR1ZShGfoch-3">
                    <mxGeometry y="90" width="160" height="30" as="geometry"/>
                </mxCell>
                <mxCell id="8Q1FjQBe_nR1ZShGfoch-11" value="" style="shape=partialRectangle;connectable=0;fillColor=none;top=0;left=0;bottom=0;right=0;editable=1;overflow=hidden;whiteSpace=wrap;html=1;" vertex="1" parent="8Q1FjQBe_nR1ZShGfoch-10">
                    <mxGeometry width="30" height="30" as="geometry">
                        <mxRectangle width="30" height="30" as="alternateBounds"/>
                    </mxGeometry>
                </mxCell>
                <mxCell id="8Q1FjQBe_nR1ZShGfoch-12" value="pass_word" style="shape=partialRectangle;connectable=0;fillColor=none;top=0;left=0;bottom=0;right=0;align=left;spacingLeft=6;overflow=hidden;whiteSpace=wrap;html=1;" vertex="1" parent="8Q1FjQBe_nR1ZShGfoch-10">
                    <mxGeometry x="30" width="130" height="30" as="geometry">
                        <mxRectangle width="130" height="30" as="alternateBounds"/>
                    </mxGeometry>
                </mxCell>
                <mxCell id="8Q1FjQBe_nR1ZShGfoch-13" value="" style="shape=tableRow;horizontal=0;startSize=0;swimlaneHead=0;swimlaneBody=0;fillColor=none;collapsible=0;dropTarget=0;points=[[0,0.5],[1,0.5]];portConstraint=eastwest;top=0;left=0;right=0;bottom=0;" vertex="1" parent="8Q1FjQBe_nR1ZShGfoch-3">
                    <mxGeometry y="120" width="160" height="30" as="geometry"/>
                </mxCell>
                <mxCell id="8Q1FjQBe_nR1ZShGfoch-14" value="" style="shape=partialRectangle;connectable=0;fillColor=none;top=0;left=0;bottom=0;right=0;editable=1;overflow=hidden;whiteSpace=wrap;html=1;" vertex="1" parent="8Q1FjQBe_nR1ZShGfoch-13">
                    <mxGeometry width="30" height="30" as="geometry">
                        <mxRectangle width="30" height="30" as="alternateBounds"/>
                    </mxGeometry>
                </mxCell>
                <mxCell id="8Q1FjQBe_nR1ZShGfoch-15" value="name" style="shape=partialRectangle;connectable=0;fillColor=none;top=0;left=0;bottom=0;right=0;align=left;spacingLeft=6;overflow=hidden;whiteSpace=wrap;html=1;" vertex="1" parent="8Q1FjQBe_nR1ZShGfoch-13">
                    <mxGeometry x="30" width="130" height="30" as="geometry">
                        <mxRectangle width="130" height="30" as="alternateBounds"/>
                    </mxGeometry>
                </mxCell>
                <mxCell id="8Q1FjQBe_nR1ZShGfoch-16" style="shape=tableRow;horizontal=0;startSize=0;swimlaneHead=0;swimlaneBody=0;fillColor=none;collapsible=0;dropTarget=0;points=[[0,0.5],[1,0.5]];portConstraint=eastwest;top=0;left=0;right=0;bottom=0;" vertex="1" parent="8Q1FjQBe_nR1ZShGfoch-3">
                    <mxGeometry y="150" width="160" height="30" as="geometry"/>
                </mxCell>
                <mxCell id="8Q1FjQBe_nR1ZShGfoch-17" style="shape=partialRectangle;connectable=0;fillColor=none;top=0;left=0;bottom=0;right=0;editable=1;overflow=hidden;whiteSpace=wrap;html=1;" vertex="1" parent="8Q1FjQBe_nR1ZShGfoch-16">
                    <mxGeometry width="30" height="30" as="geometry">
                        <mxRectangle width="30" height="30" as="alternateBounds"/>
                    </mxGeometry>
                </mxCell>
                <mxCell id="8Q1FjQBe_nR1ZShGfoch-18" value="role" style="shape=partialRectangle;connectable=0;fillColor=none;top=0;left=0;bottom=0;right=0;align=left;spacingLeft=6;overflow=hidden;whiteSpace=wrap;html=1;" vertex="1" parent="8Q1FjQBe_nR1ZShGfoch-16">
                    <mxGeometry x="30" width="130" height="30" as="geometry">
                        <mxRectangle width="130" height="30" as="alternateBounds"/>
                    </mxGeometry>
                </mxCell>
                <mxCell id="8Q1FjQBe_nR1ZShGfoch-19" value="Exam_Question" style="shape=table;startSize=30;container=1;collapsible=1;childLayout=tableLayout;fixedRows=1;rowLines=0;fontStyle=1;align=center;resizeLast=1;html=1;" vertex="1" parent="1">
                    <mxGeometry x="480" y="290" width="180" height="120" as="geometry"/>
                </mxCell>
                <mxCell id="8Q1FjQBe_nR1ZShGfoch-20" value="" style="shape=tableRow;horizontal=0;startSize=0;swimlaneHead=0;swimlaneBody=0;fillColor=none;collapsible=0;dropTarget=0;points=[[0,0.5],[1,0.5]];portConstraint=eastwest;top=0;left=0;right=0;bottom=1;" vertex="1" parent="8Q1FjQBe_nR1ZShGfoch-19">
                    <mxGeometry y="30" width="180" height="30" as="geometry"/>
                </mxCell>
                <mxCell id="8Q1FjQBe_nR1ZShGfoch-21" value="PK" style="shape=partialRectangle;connectable=0;fillColor=none;top=0;left=0;bottom=0;right=0;fontStyle=1;overflow=hidden;whiteSpace=wrap;html=1;" vertex="1" parent="8Q1FjQBe_nR1ZShGfoch-20">
                    <mxGeometry width="30" height="30" as="geometry">
                        <mxRectangle width="30" height="30" as="alternateBounds"/>
                    </mxGeometry>
                </mxCell>
                <mxCell id="8Q1FjQBe_nR1ZShGfoch-22" value="id_examQuestion" style="shape=partialRectangle;connectable=0;fillColor=none;top=0;left=0;bottom=0;right=0;align=left;spacingLeft=6;fontStyle=5;overflow=hidden;whiteSpace=wrap;html=1;" vertex="1" parent="8Q1FjQBe_nR1ZShGfoch-20">
                    <mxGeometry x="30" width="150" height="30" as="geometry">
                        <mxRectangle width="150" height="30" as="alternateBounds"/>
                    </mxGeometry>
                </mxCell>
                <mxCell id="8Q1FjQBe_nR1ZShGfoch-23" value="" style="shape=tableRow;horizontal=0;startSize=0;swimlaneHead=0;swimlaneBody=0;fillColor=none;collapsible=0;dropTarget=0;points=[[0,0.5],[1,0.5]];portConstraint=eastwest;top=0;left=0;right=0;bottom=0;" vertex="1" parent="8Q1FjQBe_nR1ZShGfoch-19">
                    <mxGeometry y="60" width="180" height="30" as="geometry"/>
                </mxCell>
                <mxCell id="8Q1FjQBe_nR1ZShGfoch-24" value="FK" style="shape=partialRectangle;connectable=0;fillColor=none;top=0;left=0;bottom=0;right=0;editable=1;overflow=hidden;whiteSpace=wrap;html=1;" vertex="1" parent="8Q1FjQBe_nR1ZShGfoch-23">
                    <mxGeometry width="30" height="30" as="geometry">
                        <mxRectangle width="30" height="30" as="alternateBounds"/>
                    </mxGeometry>
                </mxCell>
                <mxCell id="8Q1FjQBe_nR1ZShGfoch-25" value="id_exam" style="shape=partialRectangle;connectable=0;fillColor=none;top=0;left=0;bottom=0;right=0;align=left;spacingLeft=6;overflow=hidden;whiteSpace=wrap;html=1;" vertex="1" parent="8Q1FjQBe_nR1ZShGfoch-23">
                    <mxGeometry x="30" width="150" height="30" as="geometry">
                        <mxRectangle width="150" height="30" as="alternateBounds"/>
                    </mxGeometry>
                </mxCell>
                <mxCell id="8Q1FjQBe_nR1ZShGfoch-26" value="" style="shape=tableRow;horizontal=0;startSize=0;swimlaneHead=0;swimlaneBody=0;fillColor=none;collapsible=0;dropTarget=0;points=[[0,0.5],[1,0.5]];portConstraint=eastwest;top=0;left=0;right=0;bottom=0;" vertex="1" parent="8Q1FjQBe_nR1ZShGfoch-19">
                    <mxGeometry y="90" width="180" height="30" as="geometry"/>
                </mxCell>
                <mxCell id="8Q1FjQBe_nR1ZShGfoch-27" value="FK" style="shape=partialRectangle;connectable=0;fillColor=none;top=0;left=0;bottom=0;right=0;editable=1;overflow=hidden;whiteSpace=wrap;html=1;" vertex="1" parent="8Q1FjQBe_nR1ZShGfoch-26">
                    <mxGeometry width="30" height="30" as="geometry">
                        <mxRectangle width="30" height="30" as="alternateBounds"/>
                    </mxGeometry>
                </mxCell>
                <mxCell id="8Q1FjQBe_nR1ZShGfoch-28" value="id_question" style="shape=partialRectangle;connectable=0;fillColor=none;top=0;left=0;bottom=0;right=0;align=left;spacingLeft=6;overflow=hidden;whiteSpace=wrap;html=1;" vertex="1" parent="8Q1FjQBe_nR1ZShGfoch-26">
                    <mxGeometry x="30" width="150" height="30" as="geometry">
                        <mxRectangle width="150" height="30" as="alternateBounds"/>
                    </mxGeometry>
                </mxCell>
                <mxCell id="8Q1FjQBe_nR1ZShGfoch-35" value="Exams" style="shape=table;startSize=30;container=1;collapsible=1;childLayout=tableLayout;fixedRows=1;rowLines=0;fontStyle=1;align=center;resizeLast=1;html=1;" vertex="1" parent="1">
                    <mxGeometry x="480" y="80" width="160" height="180" as="geometry"/>
                </mxCell>
                <mxCell id="8Q1FjQBe_nR1ZShGfoch-36" value="" style="shape=tableRow;horizontal=0;startSize=0;swimlaneHead=0;swimlaneBody=0;fillColor=none;collapsible=0;dropTarget=0;points=[[0,0.5],[1,0.5]];portConstraint=eastwest;top=0;left=0;right=0;bottom=1;" vertex="1" parent="8Q1FjQBe_nR1ZShGfoch-35">
                    <mxGeometry y="30" width="160" height="30" as="geometry"/>
                </mxCell>
                <mxCell id="8Q1FjQBe_nR1ZShGfoch-37" value="PK" style="shape=partialRectangle;connectable=0;fillColor=none;top=0;left=0;bottom=0;right=0;fontStyle=1;overflow=hidden;whiteSpace=wrap;html=1;" vertex="1" parent="8Q1FjQBe_nR1ZShGfoch-36">
                    <mxGeometry width="30" height="30" as="geometry">
                        <mxRectangle width="30" height="30" as="alternateBounds"/>
                    </mxGeometry>
                </mxCell>
                <mxCell id="8Q1FjQBe_nR1ZShGfoch-38" value="id_exam" style="shape=partialRectangle;connectable=0;fillColor=none;top=0;left=0;bottom=0;right=0;align=left;spacingLeft=6;fontStyle=5;overflow=hidden;whiteSpace=wrap;html=1;" vertex="1" parent="8Q1FjQBe_nR1ZShGfoch-36">
                    <mxGeometry x="30" width="130" height="30" as="geometry">
                        <mxRectangle width="130" height="30" as="alternateBounds"/>
                    </mxGeometry>
                </mxCell>
                <mxCell id="8Q1FjQBe_nR1ZShGfoch-39" value="" style="shape=tableRow;horizontal=0;startSize=0;swimlaneHead=0;swimlaneBody=0;fillColor=none;collapsible=0;dropTarget=0;points=[[0,0.5],[1,0.5]];portConstraint=eastwest;top=0;left=0;right=0;bottom=0;" vertex="1" parent="8Q1FjQBe_nR1ZShGfoch-35">
                    <mxGeometry y="60" width="160" height="30" as="geometry"/>
                </mxCell>
                <mxCell id="8Q1FjQBe_nR1ZShGfoch-40" value="FK" style="shape=partialRectangle;connectable=0;fillColor=none;top=0;left=0;bottom=0;right=0;editable=1;overflow=hidden;whiteSpace=wrap;html=1;" vertex="1" parent="8Q1FjQBe_nR1ZShGfoch-39">
                    <mxGeometry width="30" height="30" as="geometry">
                        <mxRectangle width="30" height="30" as="alternateBounds"/>
                    </mxGeometry>
                </mxCell>
                <mxCell id="8Q1FjQBe_nR1ZShGfoch-41" value="id_subject" style="shape=partialRectangle;connectable=0;fillColor=none;top=0;left=0;bottom=0;right=0;align=left;spacingLeft=6;overflow=hidden;whiteSpace=wrap;html=1;" vertex="1" parent="8Q1FjQBe_nR1ZShGfoch-39">
                    <mxGeometry x="30" width="130" height="30" as="geometry">
                        <mxRectangle width="130" height="30" as="alternateBounds"/>
                    </mxGeometry>
                </mxCell>
                <mxCell id="8Q1FjQBe_nR1ZShGfoch-42" value="" style="shape=tableRow;horizontal=0;startSize=0;swimlaneHead=0;swimlaneBody=0;fillColor=none;collapsible=0;dropTarget=0;points=[[0,0.5],[1,0.5]];portConstraint=eastwest;top=0;left=0;right=0;bottom=0;" vertex="1" parent="8Q1FjQBe_nR1ZShGfoch-35">
                    <mxGeometry y="90" width="160" height="30" as="geometry"/>
                </mxCell>
                <mxCell id="8Q1FjQBe_nR1ZShGfoch-43" value="" style="shape=partialRectangle;connectable=0;fillColor=none;top=0;left=0;bottom=0;right=0;editable=1;overflow=hidden;whiteSpace=wrap;html=1;" vertex="1" parent="8Q1FjQBe_nR1ZShGfoch-42">
                    <mxGeometry width="30" height="30" as="geometry">
                        <mxRectangle width="30" height="30" as="alternateBounds"/>
                    </mxGeometry>
                </mxCell>
                <mxCell id="8Q1FjQBe_nR1ZShGfoch-44" value="name_exam" style="shape=partialRectangle;connectable=0;fillColor=none;top=0;left=0;bottom=0;right=0;align=left;spacingLeft=6;overflow=hidden;whiteSpace=wrap;html=1;" vertex="1" parent="8Q1FjQBe_nR1ZShGfoch-42">
                    <mxGeometry x="30" width="130" height="30" as="geometry">
                        <mxRectangle width="130" height="30" as="alternateBounds"/>
                    </mxGeometry>
                </mxCell>
                <mxCell id="8Q1FjQBe_nR1ZShGfoch-111" style="shape=tableRow;horizontal=0;startSize=0;swimlaneHead=0;swimlaneBody=0;fillColor=none;collapsible=0;dropTarget=0;points=[[0,0.5],[1,0.5]];portConstraint=eastwest;top=0;left=0;right=0;bottom=0;" vertex="1" parent="8Q1FjQBe_nR1ZShGfoch-35">
                    <mxGeometry y="120" width="160" height="30" as="geometry"/>
                </mxCell>
                <mxCell id="8Q1FjQBe_nR1ZShGfoch-112" style="shape=partialRectangle;connectable=0;fillColor=none;top=0;left=0;bottom=0;right=0;editable=1;overflow=hidden;whiteSpace=wrap;html=1;" vertex="1" parent="8Q1FjQBe_nR1ZShGfoch-111">
                    <mxGeometry width="30" height="30" as="geometry">
                        <mxRectangle width="30" height="30" as="alternateBounds"/>
                    </mxGeometry>
                </mxCell>
                <mxCell id="8Q1FjQBe_nR1ZShGfoch-113" value="code_exam" style="shape=partialRectangle;connectable=0;fillColor=none;top=0;left=0;bottom=0;right=0;align=left;spacingLeft=6;overflow=hidden;whiteSpace=wrap;html=1;" vertex="1" parent="8Q1FjQBe_nR1ZShGfoch-111">
                    <mxGeometry x="30" width="130" height="30" as="geometry">
                        <mxRectangle width="130" height="30" as="alternateBounds"/>
                    </mxGeometry>
                </mxCell>
                <mxCell id="8Q1FjQBe_nR1ZShGfoch-114" style="shape=tableRow;horizontal=0;startSize=0;swimlaneHead=0;swimlaneBody=0;fillColor=none;collapsible=0;dropTarget=0;points=[[0,0.5],[1,0.5]];portConstraint=eastwest;top=0;left=0;right=0;bottom=0;" vertex="1" parent="8Q1FjQBe_nR1ZShGfoch-35">
                    <mxGeometry y="150" width="160" height="30" as="geometry"/>
                </mxCell>
                <mxCell id="8Q1FjQBe_nR1ZShGfoch-115" style="shape=partialRectangle;connectable=0;fillColor=none;top=0;left=0;bottom=0;right=0;editable=1;overflow=hidden;whiteSpace=wrap;html=1;" vertex="1" parent="8Q1FjQBe_nR1ZShGfoch-114">
                    <mxGeometry width="30" height="30" as="geometry">
                        <mxRectangle width="30" height="30" as="alternateBounds"/>
                    </mxGeometry>
                </mxCell>
                <mxCell id="8Q1FjQBe_nR1ZShGfoch-116" value="duration" style="shape=partialRectangle;connectable=0;fillColor=none;top=0;left=0;bottom=0;right=0;align=left;spacingLeft=6;overflow=hidden;whiteSpace=wrap;html=1;" vertex="1" parent="8Q1FjQBe_nR1ZShGfoch-114">
                    <mxGeometry x="30" width="130" height="30" as="geometry">
                        <mxRectangle width="130" height="30" as="alternateBounds"/>
                    </mxGeometry>
                </mxCell>
                <mxCell id="8Q1FjQBe_nR1ZShGfoch-51" value="Results" style="shape=table;startSize=30;container=1;collapsible=1;childLayout=tableLayout;fixedRows=1;rowLines=0;fontStyle=1;align=center;resizeLast=1;html=1;" vertex="1" parent="1">
                    <mxGeometry x="240" y="80" width="160" height="240" as="geometry"/>
                </mxCell>
                <mxCell id="8Q1FjQBe_nR1ZShGfoch-52" value="" style="shape=tableRow;horizontal=0;startSize=0;swimlaneHead=0;swimlaneBody=0;fillColor=none;collapsible=0;dropTarget=0;points=[[0,0.5],[1,0.5]];portConstraint=eastwest;top=0;left=0;right=0;bottom=1;" vertex="1" parent="8Q1FjQBe_nR1ZShGfoch-51">
                    <mxGeometry y="30" width="160" height="30" as="geometry"/>
                </mxCell>
                <mxCell id="8Q1FjQBe_nR1ZShGfoch-53" value="PK" style="shape=partialRectangle;connectable=0;fillColor=none;top=0;left=0;bottom=0;right=0;fontStyle=1;overflow=hidden;whiteSpace=wrap;html=1;" vertex="1" parent="8Q1FjQBe_nR1ZShGfoch-52">
                    <mxGeometry width="30" height="30" as="geometry">
                        <mxRectangle width="30" height="30" as="alternateBounds"/>
                    </mxGeometry>
                </mxCell>
                <mxCell id="8Q1FjQBe_nR1ZShGfoch-54" value="id_result" style="shape=partialRectangle;connectable=0;fillColor=none;top=0;left=0;bottom=0;right=0;align=left;spacingLeft=6;fontStyle=5;overflow=hidden;whiteSpace=wrap;html=1;" vertex="1" parent="8Q1FjQBe_nR1ZShGfoch-52">
                    <mxGeometry x="30" width="130" height="30" as="geometry">
                        <mxRectangle width="130" height="30" as="alternateBounds"/>
                    </mxGeometry>
                </mxCell>
                <mxCell id="8Q1FjQBe_nR1ZShGfoch-55" value="" style="shape=tableRow;horizontal=0;startSize=0;swimlaneHead=0;swimlaneBody=0;fillColor=none;collapsible=0;dropTarget=0;points=[[0,0.5],[1,0.5]];portConstraint=eastwest;top=0;left=0;right=0;bottom=0;" vertex="1" parent="8Q1FjQBe_nR1ZShGfoch-51">
                    <mxGeometry y="60" width="160" height="30" as="geometry"/>
                </mxCell>
                <mxCell id="8Q1FjQBe_nR1ZShGfoch-56" value="FK" style="shape=partialRectangle;connectable=0;fillColor=none;top=0;left=0;bottom=0;right=0;editable=1;overflow=hidden;whiteSpace=wrap;html=1;" vertex="1" parent="8Q1FjQBe_nR1ZShGfoch-55">
                    <mxGeometry width="30" height="30" as="geometry">
                        <mxRectangle width="30" height="30" as="alternateBounds"/>
                    </mxGeometry>
                </mxCell>
                <mxCell id="8Q1FjQBe_nR1ZShGfoch-57" value="id_user" style="shape=partialRectangle;connectable=0;fillColor=none;top=0;left=0;bottom=0;right=0;align=left;spacingLeft=6;overflow=hidden;whiteSpace=wrap;html=1;" vertex="1" parent="8Q1FjQBe_nR1ZShGfoch-55">
                    <mxGeometry x="30" width="130" height="30" as="geometry">
                        <mxRectangle width="130" height="30" as="alternateBounds"/>
                    </mxGeometry>
                </mxCell>
                <mxCell id="8Q1FjQBe_nR1ZShGfoch-58" value="" style="shape=tableRow;horizontal=0;startSize=0;swimlaneHead=0;swimlaneBody=0;fillColor=none;collapsible=0;dropTarget=0;points=[[0,0.5],[1,0.5]];portConstraint=eastwest;top=0;left=0;right=0;bottom=0;" vertex="1" parent="8Q1FjQBe_nR1ZShGfoch-51">
                    <mxGeometry y="90" width="160" height="30" as="geometry"/>
                </mxCell>
                <mxCell id="8Q1FjQBe_nR1ZShGfoch-59" value="FK" style="shape=partialRectangle;connectable=0;fillColor=none;top=0;left=0;bottom=0;right=0;editable=1;overflow=hidden;whiteSpace=wrap;html=1;" vertex="1" parent="8Q1FjQBe_nR1ZShGfoch-58">
                    <mxGeometry width="30" height="30" as="geometry">
                        <mxRectangle width="30" height="30" as="alternateBounds"/>
                    </mxGeometry>
                </mxCell>
                <mxCell id="8Q1FjQBe_nR1ZShGfoch-60" value="id_exam" style="shape=partialRectangle;connectable=0;fillColor=none;top=0;left=0;bottom=0;right=0;align=left;spacingLeft=6;overflow=hidden;whiteSpace=wrap;html=1;" vertex="1" parent="8Q1FjQBe_nR1ZShGfoch-58">
                    <mxGeometry x="30" width="130" height="30" as="geometry">
                        <mxRectangle width="130" height="30" as="alternateBounds"/>
                    </mxGeometry>
                </mxCell>
                <mxCell id="8Q1FjQBe_nR1ZShGfoch-61" value="" style="shape=tableRow;horizontal=0;startSize=0;swimlaneHead=0;swimlaneBody=0;fillColor=none;collapsible=0;dropTarget=0;points=[[0,0.5],[1,0.5]];portConstraint=eastwest;top=0;left=0;right=0;bottom=0;" vertex="1" parent="8Q1FjQBe_nR1ZShGfoch-51">
                    <mxGeometry y="120" width="160" height="30" as="geometry"/>
                </mxCell>
                <mxCell id="8Q1FjQBe_nR1ZShGfoch-62" value="" style="shape=partialRectangle;connectable=0;fillColor=none;top=0;left=0;bottom=0;right=0;editable=1;overflow=hidden;whiteSpace=wrap;html=1;" vertex="1" parent="8Q1FjQBe_nR1ZShGfoch-61">
                    <mxGeometry width="30" height="30" as="geometry">
                        <mxRectangle width="30" height="30" as="alternateBounds"/>
                    </mxGeometry>
                </mxCell>
                <mxCell id="8Q1FjQBe_nR1ZShGfoch-63" value="score" style="shape=partialRectangle;connectable=0;fillColor=none;top=0;left=0;bottom=0;right=0;align=left;spacingLeft=6;overflow=hidden;whiteSpace=wrap;html=1;" vertex="1" parent="8Q1FjQBe_nR1ZShGfoch-61">
                    <mxGeometry x="30" width="130" height="30" as="geometry">
                        <mxRectangle width="130" height="30" as="alternateBounds"/>
                    </mxGeometry>
                </mxCell>
                <mxCell id="8Q1FjQBe_nR1ZShGfoch-64" style="shape=tableRow;horizontal=0;startSize=0;swimlaneHead=0;swimlaneBody=0;fillColor=none;collapsible=0;dropTarget=0;points=[[0,0.5],[1,0.5]];portConstraint=eastwest;top=0;left=0;right=0;bottom=0;" vertex="1" parent="8Q1FjQBe_nR1ZShGfoch-51">
                    <mxGeometry y="150" width="160" height="30" as="geometry"/>
                </mxCell>
                <mxCell id="8Q1FjQBe_nR1ZShGfoch-65" style="shape=partialRectangle;connectable=0;fillColor=none;top=0;left=0;bottom=0;right=0;editable=1;overflow=hidden;whiteSpace=wrap;html=1;" vertex="1" parent="8Q1FjQBe_nR1ZShGfoch-64">
                    <mxGeometry width="30" height="30" as="geometry">
                        <mxRectangle width="30" height="30" as="alternateBounds"/>
                    </mxGeometry>
                </mxCell>
                <mxCell id="8Q1FjQBe_nR1ZShGfoch-66" value="totalScore" style="shape=partialRectangle;connectable=0;fillColor=none;top=0;left=0;bottom=0;right=0;align=left;spacingLeft=6;overflow=hidden;whiteSpace=wrap;html=1;" vertex="1" parent="8Q1FjQBe_nR1ZShGfoch-64">
                    <mxGeometry x="30" width="130" height="30" as="geometry">
                        <mxRectangle width="130" height="30" as="alternateBounds"/>
                    </mxGeometry>
                </mxCell>
                <mxCell id="8Q1FjQBe_nR1ZShGfoch-105" style="shape=tableRow;horizontal=0;startSize=0;swimlaneHead=0;swimlaneBody=0;fillColor=none;collapsible=0;dropTarget=0;points=[[0,0.5],[1,0.5]];portConstraint=eastwest;top=0;left=0;right=0;bottom=0;" vertex="1" parent="8Q1FjQBe_nR1ZShGfoch-51">
                    <mxGeometry y="180" width="160" height="30" as="geometry"/>
                </mxCell>
                <mxCell id="8Q1FjQBe_nR1ZShGfoch-106" style="shape=partialRectangle;connectable=0;fillColor=none;top=0;left=0;bottom=0;right=0;editable=1;overflow=hidden;whiteSpace=wrap;html=1;" vertex="1" parent="8Q1FjQBe_nR1ZShGfoch-105">
                    <mxGeometry width="30" height="30" as="geometry">
                        <mxRectangle width="30" height="30" as="alternateBounds"/>
                    </mxGeometry>
                </mxCell>
                <mxCell id="8Q1FjQBe_nR1ZShGfoch-107" value="startTime" style="shape=partialRectangle;connectable=0;fillColor=none;top=0;left=0;bottom=0;right=0;align=left;spacingLeft=6;overflow=hidden;whiteSpace=wrap;html=1;" vertex="1" parent="8Q1FjQBe_nR1ZShGfoch-105">
                    <mxGeometry x="30" width="130" height="30" as="geometry">
                        <mxRectangle width="130" height="30" as="alternateBounds"/>
                    </mxGeometry>
                </mxCell>
                <mxCell id="8Q1FjQBe_nR1ZShGfoch-108" style="shape=tableRow;horizontal=0;startSize=0;swimlaneHead=0;swimlaneBody=0;fillColor=none;collapsible=0;dropTarget=0;points=[[0,0.5],[1,0.5]];portConstraint=eastwest;top=0;left=0;right=0;bottom=0;" vertex="1" parent="8Q1FjQBe_nR1ZShGfoch-51">
                    <mxGeometry y="210" width="160" height="30" as="geometry"/>
                </mxCell>
                <mxCell id="8Q1FjQBe_nR1ZShGfoch-109" style="shape=partialRectangle;connectable=0;fillColor=none;top=0;left=0;bottom=0;right=0;editable=1;overflow=hidden;whiteSpace=wrap;html=1;" vertex="1" parent="8Q1FjQBe_nR1ZShGfoch-108">
                    <mxGeometry width="30" height="30" as="geometry">
                        <mxRectangle width="30" height="30" as="alternateBounds"/>
                    </mxGeometry>
                </mxCell>
                <mxCell id="8Q1FjQBe_nR1ZShGfoch-110" value="endTime" style="shape=partialRectangle;connectable=0;fillColor=none;top=0;left=0;bottom=0;right=0;align=left;spacingLeft=6;overflow=hidden;whiteSpace=wrap;html=1;" vertex="1" parent="8Q1FjQBe_nR1ZShGfoch-108">
                    <mxGeometry x="30" width="130" height="30" as="geometry">
                        <mxRectangle width="130" height="30" as="alternateBounds"/>
                    </mxGeometry>
                </mxCell>
                <mxCell id="8Q1FjQBe_nR1ZShGfoch-67" value="Subjects&lt;br&gt;" style="shape=table;startSize=30;container=1;collapsible=1;childLayout=tableLayout;fixedRows=1;rowLines=0;fontStyle=1;align=center;resizeLast=1;html=1;" vertex="1" parent="1">
                    <mxGeometry x="721" y="80" width="160" height="90" as="geometry"/>
                </mxCell>
                <mxCell id="8Q1FjQBe_nR1ZShGfoch-68" value="" style="shape=tableRow;horizontal=0;startSize=0;swimlaneHead=0;swimlaneBody=0;fillColor=none;collapsible=0;dropTarget=0;points=[[0,0.5],[1,0.5]];portConstraint=eastwest;top=0;left=0;right=0;bottom=1;" vertex="1" parent="8Q1FjQBe_nR1ZShGfoch-67">
                    <mxGeometry y="30" width="160" height="30" as="geometry"/>
                </mxCell>
                <mxCell id="8Q1FjQBe_nR1ZShGfoch-69" value="PK" style="shape=partialRectangle;connectable=0;fillColor=none;top=0;left=0;bottom=0;right=0;fontStyle=1;overflow=hidden;whiteSpace=wrap;html=1;" vertex="1" parent="8Q1FjQBe_nR1ZShGfoch-68">
                    <mxGeometry width="30" height="30" as="geometry">
                        <mxRectangle width="30" height="30" as="alternateBounds"/>
                    </mxGeometry>
                </mxCell>
                <mxCell id="8Q1FjQBe_nR1ZShGfoch-70" value="id_subject" style="shape=partialRectangle;connectable=0;fillColor=none;top=0;left=0;bottom=0;right=0;align=left;spacingLeft=6;fontStyle=5;overflow=hidden;whiteSpace=wrap;html=1;" vertex="1" parent="8Q1FjQBe_nR1ZShGfoch-68">
                    <mxGeometry x="30" width="130" height="30" as="geometry">
                        <mxRectangle width="130" height="30" as="alternateBounds"/>
                    </mxGeometry>
                </mxCell>
                <mxCell id="8Q1FjQBe_nR1ZShGfoch-71" value="" style="shape=tableRow;horizontal=0;startSize=0;swimlaneHead=0;swimlaneBody=0;fillColor=none;collapsible=0;dropTarget=0;points=[[0,0.5],[1,0.5]];portConstraint=eastwest;top=0;left=0;right=0;bottom=0;" vertex="1" parent="8Q1FjQBe_nR1ZShGfoch-67">
                    <mxGeometry y="60" width="160" height="30" as="geometry"/>
                </mxCell>
                <mxCell id="8Q1FjQBe_nR1ZShGfoch-72" value="" style="shape=partialRectangle;connectable=0;fillColor=none;top=0;left=0;bottom=0;right=0;editable=1;overflow=hidden;whiteSpace=wrap;html=1;" vertex="1" parent="8Q1FjQBe_nR1ZShGfoch-71">
                    <mxGeometry width="30" height="30" as="geometry">
                        <mxRectangle width="30" height="30" as="alternateBounds"/>
                    </mxGeometry>
                </mxCell>
                <mxCell id="8Q1FjQBe_nR1ZShGfoch-73" value="name" style="shape=partialRectangle;connectable=0;fillColor=none;top=0;left=0;bottom=0;right=0;align=left;spacingLeft=6;overflow=hidden;whiteSpace=wrap;html=1;" vertex="1" parent="8Q1FjQBe_nR1ZShGfoch-71">
                    <mxGeometry x="30" width="130" height="30" as="geometry">
                        <mxRectangle width="130" height="30" as="alternateBounds"/>
                    </mxGeometry>
                </mxCell>
                <mxCell id="8Q1FjQBe_nR1ZShGfoch-83" value="Questions" style="shape=table;startSize=30;container=1;collapsible=1;childLayout=tableLayout;fixedRows=1;rowLines=0;fontStyle=1;align=center;resizeLast=1;html=1;" vertex="1" parent="1">
                    <mxGeometry x="480" y="440" width="180" height="270" as="geometry"/>
                </mxCell>
                <mxCell id="8Q1FjQBe_nR1ZShGfoch-84" value="" style="shape=tableRow;horizontal=0;startSize=0;swimlaneHead=0;swimlaneBody=0;fillColor=none;collapsible=0;dropTarget=0;points=[[0,0.5],[1,0.5]];portConstraint=eastwest;top=0;left=0;right=0;bottom=1;" vertex="1" parent="8Q1FjQBe_nR1ZShGfoch-83">
                    <mxGeometry y="30" width="180" height="30" as="geometry"/>
                </mxCell>
                <mxCell id="8Q1FjQBe_nR1ZShGfoch-85" value="PK" style="shape=partialRectangle;connectable=0;fillColor=none;top=0;left=0;bottom=0;right=0;fontStyle=1;overflow=hidden;whiteSpace=wrap;html=1;" vertex="1" parent="8Q1FjQBe_nR1ZShGfoch-84">
                    <mxGeometry width="30" height="30" as="geometry">
                        <mxRectangle width="30" height="30" as="alternateBounds"/>
                    </mxGeometry>
                </mxCell>
                <mxCell id="8Q1FjQBe_nR1ZShGfoch-86" value="id_question" style="shape=partialRectangle;connectable=0;fillColor=none;top=0;left=0;bottom=0;right=0;align=left;spacingLeft=6;fontStyle=5;overflow=hidden;whiteSpace=wrap;html=1;" vertex="1" parent="8Q1FjQBe_nR1ZShGfoch-84">
                    <mxGeometry x="30" width="150" height="30" as="geometry">
                        <mxRectangle width="150" height="30" as="alternateBounds"/>
                    </mxGeometry>
                </mxCell>
                <mxCell id="8Q1FjQBe_nR1ZShGfoch-117" style="shape=tableRow;horizontal=0;startSize=0;swimlaneHead=0;swimlaneBody=0;fillColor=none;collapsible=0;dropTarget=0;points=[[0,0.5],[1,0.5]];portConstraint=eastwest;top=0;left=0;right=0;bottom=0;" vertex="1" parent="8Q1FjQBe_nR1ZShGfoch-83">
                    <mxGeometry y="60" width="180" height="30" as="geometry"/>
                </mxCell>
                <mxCell id="8Q1FjQBe_nR1ZShGfoch-118" value="FK" style="shape=partialRectangle;connectable=0;fillColor=none;top=0;left=0;bottom=0;right=0;editable=1;overflow=hidden;whiteSpace=wrap;html=1;" vertex="1" parent="8Q1FjQBe_nR1ZShGfoch-117">
                    <mxGeometry width="30" height="30" as="geometry">
                        <mxRectangle width="30" height="30" as="alternateBounds"/>
                    </mxGeometry>
                </mxCell>
                <mxCell id="8Q1FjQBe_nR1ZShGfoch-119" value="id_subject" style="shape=partialRectangle;connectable=0;fillColor=none;top=0;left=0;bottom=0;right=0;align=left;spacingLeft=6;overflow=hidden;whiteSpace=wrap;html=1;" vertex="1" parent="8Q1FjQBe_nR1ZShGfoch-117">
                    <mxGeometry x="30" width="150" height="30" as="geometry">
                        <mxRectangle width="150" height="30" as="alternateBounds"/>
                    </mxGeometry>
                </mxCell>
                <mxCell id="8Q1FjQBe_nR1ZShGfoch-87" value="" style="shape=tableRow;horizontal=0;startSize=0;swimlaneHead=0;swimlaneBody=0;fillColor=none;collapsible=0;dropTarget=0;points=[[0,0.5],[1,0.5]];portConstraint=eastwest;top=0;left=0;right=0;bottom=0;" vertex="1" parent="8Q1FjQBe_nR1ZShGfoch-83">
                    <mxGeometry y="90" width="180" height="30" as="geometry"/>
                </mxCell>
                <mxCell id="8Q1FjQBe_nR1ZShGfoch-88" value="" style="shape=partialRectangle;connectable=0;fillColor=none;top=0;left=0;bottom=0;right=0;editable=1;overflow=hidden;whiteSpace=wrap;html=1;" vertex="1" parent="8Q1FjQBe_nR1ZShGfoch-87">
                    <mxGeometry width="30" height="30" as="geometry">
                        <mxRectangle width="30" height="30" as="alternateBounds"/>
                    </mxGeometry>
                </mxCell>
                <mxCell id="8Q1FjQBe_nR1ZShGfoch-89" value="question" style="shape=partialRectangle;connectable=0;fillColor=none;top=0;left=0;bottom=0;right=0;align=left;spacingLeft=6;overflow=hidden;whiteSpace=wrap;html=1;" vertex="1" parent="8Q1FjQBe_nR1ZShGfoch-87">
                    <mxGeometry x="30" width="150" height="30" as="geometry">
                        <mxRectangle width="150" height="30" as="alternateBounds"/>
                    </mxGeometry>
                </mxCell>
                <mxCell id="8Q1FjQBe_nR1ZShGfoch-90" value="" style="shape=tableRow;horizontal=0;startSize=0;swimlaneHead=0;swimlaneBody=0;fillColor=none;collapsible=0;dropTarget=0;points=[[0,0.5],[1,0.5]];portConstraint=eastwest;top=0;left=0;right=0;bottom=0;" vertex="1" parent="8Q1FjQBe_nR1ZShGfoch-83">
                    <mxGeometry y="120" width="180" height="30" as="geometry"/>
                </mxCell>
                <mxCell id="8Q1FjQBe_nR1ZShGfoch-91" value="" style="shape=partialRectangle;connectable=0;fillColor=none;top=0;left=0;bottom=0;right=0;editable=1;overflow=hidden;whiteSpace=wrap;html=1;" vertex="1" parent="8Q1FjQBe_nR1ZShGfoch-90">
                    <mxGeometry width="30" height="30" as="geometry">
                        <mxRectangle width="30" height="30" as="alternateBounds"/>
                    </mxGeometry>
                </mxCell>
                <mxCell id="8Q1FjQBe_nR1ZShGfoch-92" value="answer1" style="shape=partialRectangle;connectable=0;fillColor=none;top=0;left=0;bottom=0;right=0;align=left;spacingLeft=6;overflow=hidden;whiteSpace=wrap;html=1;" vertex="1" parent="8Q1FjQBe_nR1ZShGfoch-90">
                    <mxGeometry x="30" width="150" height="30" as="geometry">
                        <mxRectangle width="150" height="30" as="alternateBounds"/>
                    </mxGeometry>
                </mxCell>
                <mxCell id="8Q1FjQBe_nR1ZShGfoch-93" value="" style="shape=tableRow;horizontal=0;startSize=0;swimlaneHead=0;swimlaneBody=0;fillColor=none;collapsible=0;dropTarget=0;points=[[0,0.5],[1,0.5]];portConstraint=eastwest;top=0;left=0;right=0;bottom=0;" vertex="1" parent="8Q1FjQBe_nR1ZShGfoch-83">
                    <mxGeometry y="150" width="180" height="30" as="geometry"/>
                </mxCell>
                <mxCell id="8Q1FjQBe_nR1ZShGfoch-94" value="" style="shape=partialRectangle;connectable=0;fillColor=none;top=0;left=0;bottom=0;right=0;editable=1;overflow=hidden;whiteSpace=wrap;html=1;" vertex="1" parent="8Q1FjQBe_nR1ZShGfoch-93">
                    <mxGeometry width="30" height="30" as="geometry">
                        <mxRectangle width="30" height="30" as="alternateBounds"/>
                    </mxGeometry>
                </mxCell>
                <mxCell id="8Q1FjQBe_nR1ZShGfoch-95" value="answer2" style="shape=partialRectangle;connectable=0;fillColor=none;top=0;left=0;bottom=0;right=0;align=left;spacingLeft=6;overflow=hidden;whiteSpace=wrap;html=1;" vertex="1" parent="8Q1FjQBe_nR1ZShGfoch-93">
                    <mxGeometry x="30" width="150" height="30" as="geometry">
                        <mxRectangle width="150" height="30" as="alternateBounds"/>
                    </mxGeometry>
                </mxCell>
                <mxCell id="8Q1FjQBe_nR1ZShGfoch-99" style="shape=tableRow;horizontal=0;startSize=0;swimlaneHead=0;swimlaneBody=0;fillColor=none;collapsible=0;dropTarget=0;points=[[0,0.5],[1,0.5]];portConstraint=eastwest;top=0;left=0;right=0;bottom=0;" vertex="1" parent="8Q1FjQBe_nR1ZShGfoch-83">
                    <mxGeometry y="180" width="180" height="30" as="geometry"/>
                </mxCell>
                <mxCell id="8Q1FjQBe_nR1ZShGfoch-100" style="shape=partialRectangle;connectable=0;fillColor=none;top=0;left=0;bottom=0;right=0;editable=1;overflow=hidden;whiteSpace=wrap;html=1;" vertex="1" parent="8Q1FjQBe_nR1ZShGfoch-99">
                    <mxGeometry width="30" height="30" as="geometry">
                        <mxRectangle width="30" height="30" as="alternateBounds"/>
                    </mxGeometry>
                </mxCell>
                <mxCell id="8Q1FjQBe_nR1ZShGfoch-101" value="answer3" style="shape=partialRectangle;connectable=0;fillColor=none;top=0;left=0;bottom=0;right=0;align=left;spacingLeft=6;overflow=hidden;whiteSpace=wrap;html=1;" vertex="1" parent="8Q1FjQBe_nR1ZShGfoch-99">
                    <mxGeometry x="30" width="150" height="30" as="geometry">
                        <mxRectangle width="150" height="30" as="alternateBounds"/>
                    </mxGeometry>
                </mxCell>
                <mxCell id="8Q1FjQBe_nR1ZShGfoch-102" style="shape=tableRow;horizontal=0;startSize=0;swimlaneHead=0;swimlaneBody=0;fillColor=none;collapsible=0;dropTarget=0;points=[[0,0.5],[1,0.5]];portConstraint=eastwest;top=0;left=0;right=0;bottom=0;" vertex="1" parent="8Q1FjQBe_nR1ZShGfoch-83">
                    <mxGeometry y="210" width="180" height="30" as="geometry"/>
                </mxCell>
                <mxCell id="8Q1FjQBe_nR1ZShGfoch-103" style="shape=partialRectangle;connectable=0;fillColor=none;top=0;left=0;bottom=0;right=0;editable=1;overflow=hidden;whiteSpace=wrap;html=1;" vertex="1" parent="8Q1FjQBe_nR1ZShGfoch-102">
                    <mxGeometry width="30" height="30" as="geometry">
                        <mxRectangle width="30" height="30" as="alternateBounds"/>
                    </mxGeometry>
                </mxCell>
                <mxCell id="8Q1FjQBe_nR1ZShGfoch-104" value="answer4" style="shape=partialRectangle;connectable=0;fillColor=none;top=0;left=0;bottom=0;right=0;align=left;spacingLeft=6;overflow=hidden;whiteSpace=wrap;html=1;" vertex="1" parent="8Q1FjQBe_nR1ZShGfoch-102">
                    <mxGeometry x="30" width="150" height="30" as="geometry">
                        <mxRectangle width="150" height="30" as="alternateBounds"/>
                    </mxGeometry>
                </mxCell>
                <mxCell id="8Q1FjQBe_nR1ZShGfoch-96" style="shape=tableRow;horizontal=0;startSize=0;swimlaneHead=0;swimlaneBody=0;fillColor=none;collapsible=0;dropTarget=0;points=[[0,0.5],[1,0.5]];portConstraint=eastwest;top=0;left=0;right=0;bottom=0;" vertex="1" parent="8Q1FjQBe_nR1ZShGfoch-83">
                    <mxGeometry y="240" width="180" height="30" as="geometry"/>
                </mxCell>
                <mxCell id="8Q1FjQBe_nR1ZShGfoch-97" style="shape=partialRectangle;connectable=0;fillColor=none;top=0;left=0;bottom=0;right=0;editable=1;overflow=hidden;whiteSpace=wrap;html=1;" vertex="1" parent="8Q1FjQBe_nR1ZShGfoch-96">
                    <mxGeometry width="30" height="30" as="geometry">
                        <mxRectangle width="30" height="30" as="alternateBounds"/>
                    </mxGeometry>
                </mxCell>
                <mxCell id="8Q1FjQBe_nR1ZShGfoch-98" value="answer" style="shape=partialRectangle;connectable=0;fillColor=none;top=0;left=0;bottom=0;right=0;align=left;spacingLeft=6;overflow=hidden;whiteSpace=wrap;html=1;" vertex="1" parent="8Q1FjQBe_nR1ZShGfoch-96">
                    <mxGeometry x="30" width="150" height="30" as="geometry">
                        <mxRectangle width="150" height="30" as="alternateBounds"/>
                    </mxGeometry>
                </mxCell>
                <mxCell id="8Q1FjQBe_nR1ZShGfoch-133" style="edgeStyle=orthogonalEdgeStyle;rounded=0;orthogonalLoop=1;jettySize=auto;html=1;exitX=1;exitY=0.5;exitDx=0;exitDy=0;entryX=0;entryY=0.5;entryDx=0;entryDy=0;endArrow=ERmany;endFill=0;" edge="1" parent="1" source="8Q1FjQBe_nR1ZShGfoch-4" target="8Q1FjQBe_nR1ZShGfoch-55">
                    <mxGeometry relative="1" as="geometry"/>
                </mxCell>
                <mxCell id="8Q1FjQBe_nR1ZShGfoch-135" style="edgeStyle=orthogonalEdgeStyle;rounded=0;orthogonalLoop=1;jettySize=auto;html=1;exitX=0;exitY=0.5;exitDx=0;exitDy=0;entryX=1;entryY=0.5;entryDx=0;entryDy=0;endArrow=ERmany;endFill=0;" edge="1" parent="1" source="8Q1FjQBe_nR1ZShGfoch-36" target="8Q1FjQBe_nR1ZShGfoch-58">
                    <mxGeometry relative="1" as="geometry"/>
                </mxCell>
                <mxCell id="8Q1FjQBe_nR1ZShGfoch-136" style="edgeStyle=orthogonalEdgeStyle;rounded=0;orthogonalLoop=1;jettySize=auto;html=1;exitX=0;exitY=0.5;exitDx=0;exitDy=0;entryX=1;entryY=0.5;entryDx=0;entryDy=0;endArrow=ERmany;endFill=0;" edge="1" parent="1" source="8Q1FjQBe_nR1ZShGfoch-68" target="8Q1FjQBe_nR1ZShGfoch-39">
                    <mxGeometry relative="1" as="geometry">
                        <Array as="points">
                            <mxPoint x="690" y="125"/>
                            <mxPoint x="690" y="155"/>
                        </Array>
                    </mxGeometry>
                </mxCell>
                <mxCell id="8Q1FjQBe_nR1ZShGfoch-137" style="edgeStyle=orthogonalEdgeStyle;rounded=0;orthogonalLoop=1;jettySize=auto;html=1;exitX=0;exitY=0.5;exitDx=0;exitDy=0;entryX=1;entryY=0.5;entryDx=0;entryDy=0;endArrow=ERmany;endFill=0;" edge="1" parent="1" source="8Q1FjQBe_nR1ZShGfoch-68" target="8Q1FjQBe_nR1ZShGfoch-117">
                    <mxGeometry relative="1" as="geometry"/>
                </mxCell>
                <mxCell id="8Q1FjQBe_nR1ZShGfoch-138" style="edgeStyle=orthogonalEdgeStyle;rounded=0;orthogonalLoop=1;jettySize=auto;html=1;exitX=0;exitY=0.5;exitDx=0;exitDy=0;entryX=0;entryY=0.5;entryDx=0;entryDy=0;endArrow=ERmany;endFill=0;" edge="1" parent="1" source="8Q1FjQBe_nR1ZShGfoch-84" target="8Q1FjQBe_nR1ZShGfoch-26">
                    <mxGeometry relative="1" as="geometry"/>
                </mxCell>
                <mxCell id="8Q1FjQBe_nR1ZShGfoch-139" style="edgeStyle=orthogonalEdgeStyle;rounded=0;orthogonalLoop=1;jettySize=auto;html=1;exitX=0;exitY=0.5;exitDx=0;exitDy=0;entryX=0;entryY=0.5;entryDx=0;entryDy=0;endArrow=ERmany;endFill=0;" edge="1" parent="1" source="8Q1FjQBe_nR1ZShGfoch-36" target="8Q1FjQBe_nR1ZShGfoch-23">
                    <mxGeometry relative="1" as="geometry">
                        <Array as="points">
                            <mxPoint x="440" y="125"/>
                            <mxPoint x="440" y="365"/>
                        </Array>
                    </mxGeometry>
                </mxCell>
            </root>
        </mxGraphModel>
    </diagram>
    <diagram id="S089i8K5pE2eaPT1F8Ls" name="UML">
        <mxGraphModel dx="1640" dy="4159" grid="1" gridSize="10" guides="1" tooltips="1" connect="1" arrows="1" fold="1" page="1" pageScale="1" pageWidth="827" pageHeight="1169" math="0" shadow="0">
            <root>
                <mxCell id="0"/>
                <mxCell id="1" parent="0"/>
                <mxCell id="j-GT-S5YjUjoqXcTZulf-1" value="" style="swimlane;startSize=0;" parent="1" vertex="1">
                    <mxGeometry x="-720" y="-1840" width="1140" height="420" as="geometry"/>
                </mxCell>
                <mxCell id="j-GT-S5YjUjoqXcTZulf-2" value="Database Acess" style="text;html=1;strokeColor=none;fillColor=none;align=center;verticalAlign=middle;whiteSpace=wrap;rounded=0;fontSize=16;fontStyle=1" parent="j-GT-S5YjUjoqXcTZulf-1" vertex="1">
                    <mxGeometry x="445" y="23" width="230" height="30" as="geometry"/>
                </mxCell>
                <mxCell id="j-GT-S5YjUjoqXcTZulf-3" value="UserDB" style="swimlane;fontStyle=0;childLayout=stackLayout;horizontal=1;startSize=30;horizontalStack=0;resizeParent=1;resizeParentMax=0;resizeLast=0;collapsible=1;marginBottom=0;whiteSpace=wrap;html=1;fillColor=#dae8fc;strokeColor=#6c8ebf;" parent="j-GT-S5YjUjoqXcTZulf-1" vertex="1">
                    <mxGeometry x="40" y="90" width="190" height="150" as="geometry"/>
                </mxCell>
                <mxCell id="j-GT-S5YjUjoqXcTZulf-4" value="connection" style="text;strokeColor=#666666;fillColor=#f5f5f5;align=left;verticalAlign=middle;spacingLeft=4;spacingRight=4;overflow=hidden;points=[[0,0.5],[1,0.5]];portConstraint=eastwest;rotatable=0;whiteSpace=wrap;html=1;fontColor=#333333;" parent="j-GT-S5YjUjoqXcTZulf-3" vertex="1">
                    <mxGeometry y="30" width="190" height="30" as="geometry"/>
                </mxCell>
                <mxCell id="j-GT-S5YjUjoqXcTZulf-5" value="addUser(login, password)" style="text;strokeColor=none;fillColor=none;align=left;verticalAlign=middle;spacingLeft=4;spacingRight=4;overflow=hidden;points=[[0,0.5],[1,0.5]];portConstraint=eastwest;rotatable=0;whiteSpace=wrap;html=1;" parent="j-GT-S5YjUjoqXcTZulf-3" vertex="1">
                    <mxGeometry y="60" width="190" height="30" as="geometry"/>
                </mxCell>
                <mxCell id="j-GT-S5YjUjoqXcTZulf-6" value="getUser(id)" style="text;strokeColor=none;fillColor=none;align=left;verticalAlign=middle;spacingLeft=4;spacingRight=4;overflow=hidden;points=[[0,0.5],[1,0.5]];portConstraint=eastwest;rotatable=0;whiteSpace=wrap;html=1;" parent="j-GT-S5YjUjoqXcTZulf-3" vertex="1">
                    <mxGeometry y="90" width="190" height="30" as="geometry"/>
                </mxCell>
                <mxCell id="j-GT-S5YjUjoqXcTZulf-7" value="getUserID(login)" style="text;strokeColor=none;fillColor=none;align=left;verticalAlign=middle;spacingLeft=4;spacingRight=4;overflow=hidden;points=[[0,0.5],[1,0.5]];portConstraint=eastwest;rotatable=0;whiteSpace=wrap;html=1;" parent="j-GT-S5YjUjoqXcTZulf-3" vertex="1">
                    <mxGeometry y="120" width="190" height="30" as="geometry"/>
                </mxCell>
                <mxCell id="j-GT-S5YjUjoqXcTZulf-8" value="RoomDB" style="swimlane;fontStyle=0;childLayout=stackLayout;horizontal=1;startSize=30;horizontalStack=0;resizeParent=1;resizeParentMax=0;resizeLast=0;collapsible=1;marginBottom=0;whiteSpace=wrap;html=1;fillColor=#dae8fc;strokeColor=#6c8ebf;" parent="j-GT-S5YjUjoqXcTZulf-1" vertex="1">
                    <mxGeometry x="880" y="90" width="240" height="180" as="geometry"/>
                </mxCell>
                <mxCell id="j-GT-S5YjUjoqXcTZulf-9" value="connection" style="text;strokeColor=#666666;fillColor=#f5f5f5;align=left;verticalAlign=middle;spacingLeft=4;spacingRight=4;overflow=hidden;points=[[0,0.5],[1,0.5]];portConstraint=eastwest;rotatable=0;whiteSpace=wrap;html=1;fontColor=#333333;" parent="j-GT-S5YjUjoqXcTZulf-8" vertex="1">
                    <mxGeometry y="30" width="240" height="30" as="geometry"/>
                </mxCell>
                <mxCell id="j-GT-S5YjUjoqXcTZulf-10" value="addRoom(number, type)" style="text;strokeColor=none;fillColor=none;align=left;verticalAlign=middle;spacingLeft=4;spacingRight=4;overflow=hidden;points=[[0,0.5],[1,0.5]];portConstraint=eastwest;rotatable=0;whiteSpace=wrap;html=1;" parent="j-GT-S5YjUjoqXcTZulf-8" vertex="1">
                    <mxGeometry y="60" width="240" height="30" as="geometry"/>
                </mxCell>
                <mxCell id="j-GT-S5YjUjoqXcTZulf-11" value="getRoom(id_room)" style="text;strokeColor=none;fillColor=none;align=left;verticalAlign=middle;spacingLeft=4;spacingRight=4;overflow=hidden;points=[[0,0.5],[1,0.5]];portConstraint=eastwest;rotatable=0;whiteSpace=wrap;html=1;" parent="j-GT-S5YjUjoqXcTZulf-8" vertex="1">
                    <mxGeometry y="90" width="240" height="30" as="geometry"/>
                </mxCell>
                <mxCell id="j-GT-S5YjUjoqXcTZulf-12" value="getAllRoom()" style="text;strokeColor=none;fillColor=none;align=left;verticalAlign=middle;spacingLeft=4;spacingRight=4;overflow=hidden;points=[[0,0.5],[1,0.5]];portConstraint=eastwest;rotatable=0;whiteSpace=wrap;html=1;" parent="j-GT-S5YjUjoqXcTZulf-8" vertex="1">
                    <mxGeometry y="120" width="240" height="30" as="geometry"/>
                </mxCell>
                <mxCell id="j-GT-S5YjUjoqXcTZulf-13" value="deleteRoom(id_room)" style="text;strokeColor=none;fillColor=none;align=left;verticalAlign=middle;spacingLeft=4;spacingRight=4;overflow=hidden;points=[[0,0.5],[1,0.5]];portConstraint=eastwest;rotatable=0;whiteSpace=wrap;html=1;" parent="j-GT-S5YjUjoqXcTZulf-8" vertex="1">
                    <mxGeometry y="150" width="240" height="30" as="geometry"/>
                </mxCell>
                <mxCell id="j-GT-S5YjUjoqXcTZulf-14" value="ThingDB" style="swimlane;fontStyle=0;childLayout=stackLayout;horizontal=1;startSize=30;horizontalStack=0;resizeParent=1;resizeParentMax=0;resizeLast=0;collapsible=1;marginBottom=0;whiteSpace=wrap;html=1;fillColor=#dae8fc;strokeColor=#6c8ebf;" parent="j-GT-S5YjUjoqXcTZulf-1" vertex="1">
                    <mxGeometry x="570" y="90" width="270" height="210" as="geometry"/>
                </mxCell>
                <mxCell id="j-GT-S5YjUjoqXcTZulf-15" value="connection" style="text;strokeColor=#666666;fillColor=#f5f5f5;align=left;verticalAlign=middle;spacingLeft=4;spacingRight=4;overflow=hidden;points=[[0,0.5],[1,0.5]];portConstraint=eastwest;rotatable=0;whiteSpace=wrap;html=1;fontColor=#333333;" parent="j-GT-S5YjUjoqXcTZulf-14" vertex="1">
                    <mxGeometry y="30" width="270" height="30" as="geometry"/>
                </mxCell>
                <mxCell id="j-GT-S5YjUjoqXcTZulf-16" value="addThing(code, type)" style="text;strokeColor=none;fillColor=none;align=left;verticalAlign=middle;spacingLeft=4;spacingRight=4;overflow=hidden;points=[[0,0.5],[1,0.5]];portConstraint=eastwest;rotatable=0;whiteSpace=wrap;html=1;" parent="j-GT-S5YjUjoqXcTZulf-14" vertex="1">
                    <mxGeometry y="60" width="270" height="30" as="geometry"/>
                </mxCell>
                <mxCell id="j-GT-S5YjUjoqXcTZulf-17" value="getThing(id_thing)" style="text;strokeColor=none;fillColor=none;align=left;verticalAlign=middle;spacingLeft=4;spacingRight=4;overflow=hidden;points=[[0,0.5],[1,0.5]];portConstraint=eastwest;rotatable=0;whiteSpace=wrap;html=1;" parent="j-GT-S5YjUjoqXcTZulf-14" vertex="1">
                    <mxGeometry y="90" width="270" height="30" as="geometry"/>
                </mxCell>
                <mxCell id="j-GT-S5YjUjoqXcTZulf-18" value="getAllThing()" style="text;strokeColor=none;fillColor=none;align=left;verticalAlign=middle;spacingLeft=4;spacingRight=4;overflow=hidden;points=[[0,0.5],[1,0.5]];portConstraint=eastwest;rotatable=0;whiteSpace=wrap;html=1;" parent="j-GT-S5YjUjoqXcTZulf-14" vertex="1">
                    <mxGeometry y="120" width="270" height="30" as="geometry"/>
                </mxCell>
                <mxCell id="j-GT-S5YjUjoqXcTZulf-19" value="deleteThing(id_thing)" style="text;strokeColor=none;fillColor=none;align=left;verticalAlign=middle;spacingLeft=4;spacingRight=4;overflow=hidden;points=[[0,0.5],[1,0.5]];portConstraint=eastwest;rotatable=0;whiteSpace=wrap;html=1;" parent="j-GT-S5YjUjoqXcTZulf-14" vertex="1">
                    <mxGeometry y="150" width="270" height="30" as="geometry"/>
                </mxCell>
                <mxCell id="j-GT-S5YjUjoqXcTZulf-20" value="changeRoomThing(id_thing, id_from, id_to)" style="text;strokeColor=none;fillColor=none;align=left;verticalAlign=middle;spacingLeft=4;spacingRight=4;overflow=hidden;points=[[0,0.5],[1,0.5]];portConstraint=eastwest;rotatable=0;whiteSpace=wrap;html=1;" parent="j-GT-S5YjUjoqXcTZulf-14" vertex="1">
                    <mxGeometry y="180" width="270" height="30" as="geometry"/>
                </mxCell>
                <mxCell id="j-GT-S5YjUjoqXcTZulf-21" value="StudentDB" style="swimlane;fontStyle=0;childLayout=stackLayout;horizontal=1;startSize=30;horizontalStack=0;resizeParent=1;resizeParentMax=0;resizeLast=0;collapsible=1;marginBottom=0;whiteSpace=wrap;html=1;fillColor=#dae8fc;strokeColor=#6c8ebf;" parent="j-GT-S5YjUjoqXcTZulf-1" vertex="1">
                    <mxGeometry x="280" y="90" width="260" height="300" as="geometry"/>
                </mxCell>
                <mxCell id="j-GT-S5YjUjoqXcTZulf-22" value="connection" style="text;strokeColor=#666666;fillColor=#f5f5f5;align=left;verticalAlign=middle;spacingLeft=4;spacingRight=4;overflow=hidden;points=[[0,0.5],[1,0.5]];portConstraint=eastwest;rotatable=0;whiteSpace=wrap;html=1;fontColor=#333333;" parent="j-GT-S5YjUjoqXcTZulf-21" vertex="1">
                    <mxGeometry y="30" width="260" height="30" as="geometry"/>
                </mxCell>
                <mxCell id="j-GT-S5YjUjoqXcTZulf-23" value="addStudent(name, group, dataIn)" style="text;align=left;verticalAlign=middle;spacingLeft=4;spacingRight=4;overflow=hidden;points=[[0,0.5],[1,0.5]];portConstraint=eastwest;rotatable=0;whiteSpace=wrap;html=1;" parent="j-GT-S5YjUjoqXcTZulf-21" vertex="1">
                    <mxGeometry y="60" width="260" height="30" as="geometry"/>
                </mxCell>
                <mxCell id="j-GT-S5YjUjoqXcTZulf-24" value="getStudent(id_student)" style="text;strokeColor=none;fillColor=none;align=left;verticalAlign=middle;spacingLeft=4;spacingRight=4;overflow=hidden;points=[[0,0.5],[1,0.5]];portConstraint=eastwest;rotatable=0;whiteSpace=wrap;html=1;" parent="j-GT-S5YjUjoqXcTZulf-21" vertex="1">
                    <mxGeometry y="90" width="260" height="30" as="geometry"/>
                </mxCell>
                <mxCell id="j-GT-S5YjUjoqXcTZulf-25" value="getAllStudent()" style="text;strokeColor=none;fillColor=none;align=left;verticalAlign=middle;spacingLeft=4;spacingRight=4;overflow=hidden;points=[[0,0.5],[1,0.5]];portConstraint=eastwest;rotatable=0;whiteSpace=wrap;html=1;" parent="j-GT-S5YjUjoqXcTZulf-21" vertex="1">
                    <mxGeometry y="120" width="260" height="30" as="geometry"/>
                </mxCell>
                <mxCell id="j-GT-S5YjUjoqXcTZulf-26" value="getRoomStudent(id_student)" style="text;strokeColor=none;fillColor=none;align=left;verticalAlign=middle;spacingLeft=4;spacingRight=4;overflow=hidden;points=[[0,0.5],[1,0.5]];portConstraint=eastwest;rotatable=0;whiteSpace=wrap;html=1;" parent="j-GT-S5YjUjoqXcTZulf-21" vertex="1">
                    <mxGeometry y="150" width="260" height="30" as="geometry"/>
                </mxCell>
                <mxCell id="j-GT-S5YjUjoqXcTZulf-27" value="changeNameStudent(id_student, new_name)" style="text;strokeColor=none;fillColor=none;align=left;verticalAlign=middle;spacingLeft=4;spacingRight=4;overflow=hidden;points=[[0,0.5],[1,0.5]];portConstraint=eastwest;rotatable=0;whiteSpace=wrap;html=1;" parent="j-GT-S5YjUjoqXcTZulf-21" vertex="1">
                    <mxGeometry y="180" width="260" height="30" as="geometry"/>
                </mxCell>
                <mxCell id="j-GT-S5YjUjoqXcTZulf-28" value="changeGroupStudent(id_student, new_group)" style="text;strokeColor=none;fillColor=none;align=left;verticalAlign=middle;spacingLeft=4;spacingRight=4;overflow=hidden;points=[[0,0.5],[1,0.5]];portConstraint=eastwest;rotatable=0;whiteSpace=wrap;html=1;" parent="j-GT-S5YjUjoqXcTZulf-21" vertex="1">
                    <mxGeometry y="210" width="260" height="30" as="geometry"/>
                </mxCell>
                <mxCell id="j-GT-S5YjUjoqXcTZulf-29" value="changeRoomStudent(id_student, id_room)" style="text;strokeColor=none;fillColor=none;align=left;verticalAlign=middle;spacingLeft=4;spacingRight=4;overflow=hidden;points=[[0,0.5],[1,0.5]];portConstraint=eastwest;rotatable=0;whiteSpace=wrap;html=1;" parent="j-GT-S5YjUjoqXcTZulf-21" vertex="1">
                    <mxGeometry y="240" width="260" height="30" as="geometry"/>
                </mxCell>
                <mxCell id="j-GT-S5YjUjoqXcTZulf-30" value="deleteStudent(id_student)" style="text;strokeColor=none;fillColor=none;align=left;verticalAlign=middle;spacingLeft=4;spacingRight=4;overflow=hidden;points=[[0,0.5],[1,0.5]];portConstraint=eastwest;rotatable=0;whiteSpace=wrap;html=1;" parent="j-GT-S5YjUjoqXcTZulf-21" vertex="1">
                    <mxGeometry y="270" width="260" height="30" as="geometry"/>
                </mxCell>
                <mxCell id="j-GT-S5YjUjoqXcTZulf-31" value="" style="swimlane;startSize=0;" parent="1" vertex="1">
                    <mxGeometry x="-700" y="-2640" width="1970" height="770" as="geometry">
                        <mxRectangle x="310" y="-90" width="50" height="40" as="alternateBounds"/>
                    </mxGeometry>
                </mxCell>
                <mxCell id="j-GT-S5YjUjoqXcTZulf-33" value="UserServices" style="swimlane;fontStyle=0;childLayout=stackLayout;horizontal=1;startSize=30;horizontalStack=0;resizeParent=1;resizeParentMax=0;resizeLast=0;collapsible=1;marginBottom=0;whiteSpace=wrap;html=1;fillColor=#dae8fc;strokeColor=#6c8ebf;" parent="j-GT-S5YjUjoqXcTZulf-31" vertex="1">
                    <mxGeometry x="21" y="170" width="190" height="120" as="geometry"/>
                </mxCell>
                <mxCell id="j-GT-S5YjUjoqXcTZulf-34" value="addUser(login, password)" style="text;strokeColor=none;fillColor=none;align=left;verticalAlign=middle;spacingLeft=4;spacingRight=4;overflow=hidden;points=[[0,0.5],[1,0.5]];portConstraint=eastwest;rotatable=0;whiteSpace=wrap;html=1;" parent="j-GT-S5YjUjoqXcTZulf-33" vertex="1">
                    <mxGeometry y="30" width="190" height="30" as="geometry"/>
                </mxCell>
                <mxCell id="j-GT-S5YjUjoqXcTZulf-35" value="getUser(id)" style="text;strokeColor=none;fillColor=none;align=left;verticalAlign=middle;spacingLeft=4;spacingRight=4;overflow=hidden;points=[[0,0.5],[1,0.5]];portConstraint=eastwest;rotatable=0;whiteSpace=wrap;html=1;" parent="j-GT-S5YjUjoqXcTZulf-33" vertex="1">
                    <mxGeometry y="60" width="190" height="30" as="geometry"/>
                </mxCell>
                <mxCell id="j-GT-S5YjUjoqXcTZulf-36" value="getUserID(login)" style="text;strokeColor=none;fillColor=none;align=left;verticalAlign=middle;spacingLeft=4;spacingRight=4;overflow=hidden;points=[[0,0.5],[1,0.5]];portConstraint=eastwest;rotatable=0;whiteSpace=wrap;html=1;" parent="j-GT-S5YjUjoqXcTZulf-33" vertex="1">
                    <mxGeometry y="90" width="190" height="30" as="geometry"/>
                </mxCell>
                <mxCell id="j-GT-S5YjUjoqXcTZulf-38" value="RoomServices" style="swimlane;fontStyle=0;childLayout=stackLayout;horizontal=1;startSize=30;horizontalStack=0;resizeParent=1;resizeParentMax=0;resizeLast=0;collapsible=1;marginBottom=0;whiteSpace=wrap;html=1;fillColor=#dae8fc;strokeColor=#6c8ebf;" parent="j-GT-S5YjUjoqXcTZulf-31" vertex="1">
                    <mxGeometry x="861" y="160" width="240" height="180" as="geometry"/>
                </mxCell>
                <mxCell id="j-GT-S5YjUjoqXcTZulf-39" value="addRoom(number, type)" style="text;strokeColor=none;fillColor=none;align=left;verticalAlign=middle;spacingLeft=4;spacingRight=4;overflow=hidden;points=[[0,0.5],[1,0.5]];portConstraint=eastwest;rotatable=0;whiteSpace=wrap;html=1;" parent="j-GT-S5YjUjoqXcTZulf-38" vertex="1">
                    <mxGeometry y="30" width="240" height="30" as="geometry"/>
                </mxCell>
                <mxCell id="j-GT-S5YjUjoqXcTZulf-40" value="getRoom(id_room)" style="text;strokeColor=none;fillColor=none;align=left;verticalAlign=middle;spacingLeft=4;spacingRight=4;overflow=hidden;points=[[0,0.5],[1,0.5]];portConstraint=eastwest;rotatable=0;whiteSpace=wrap;html=1;" parent="j-GT-S5YjUjoqXcTZulf-38" vertex="1">
                    <mxGeometry y="60" width="240" height="30" as="geometry"/>
                </mxCell>
                <mxCell id="j-GT-S5YjUjoqXcTZulf-41" value="getAllRoom()" style="text;strokeColor=none;fillColor=none;align=left;verticalAlign=middle;spacingLeft=4;spacingRight=4;overflow=hidden;points=[[0,0.5],[1,0.5]];portConstraint=eastwest;rotatable=0;whiteSpace=wrap;html=1;" parent="j-GT-S5YjUjoqXcTZulf-38" vertex="1">
                    <mxGeometry y="90" width="240" height="30" as="geometry"/>
                </mxCell>
                <mxCell id="j-GT-S5YjUjoqXcTZulf-42" value="deleteRoom(id_room)" style="text;strokeColor=none;fillColor=none;align=left;verticalAlign=middle;spacingLeft=4;spacingRight=4;overflow=hidden;points=[[0,0.5],[1,0.5]];portConstraint=eastwest;rotatable=0;whiteSpace=wrap;html=1;" parent="j-GT-S5YjUjoqXcTZulf-38" vertex="1">
                    <mxGeometry y="120" width="240" height="30" as="geometry"/>
                </mxCell>
                <mxCell id="j-GT-S5YjUjoqXcTZulf-43" value="getThingRoom(id_room)" style="text;strokeColor=none;fillColor=none;align=left;verticalAlign=middle;spacingLeft=4;spacingRight=4;overflow=hidden;points=[[0,0.5],[1,0.5]];portConstraint=eastwest;rotatable=0;whiteSpace=wrap;html=1;" parent="j-GT-S5YjUjoqXcTZulf-38" vertex="1">
                    <mxGeometry y="150" width="240" height="30" as="geometry"/>
                </mxCell>
                <mxCell id="j-GT-S5YjUjoqXcTZulf-45" value="ThingServices" style="swimlane;fontStyle=0;childLayout=stackLayout;horizontal=1;startSize=30;horizontalStack=0;resizeParent=1;resizeParentMax=0;resizeLast=0;collapsible=1;marginBottom=0;whiteSpace=wrap;html=1;fillColor=#dae8fc;strokeColor=#6c8ebf;" parent="j-GT-S5YjUjoqXcTZulf-31" vertex="1">
                    <mxGeometry x="551" y="160" width="270" height="180" as="geometry"/>
                </mxCell>
                <mxCell id="j-GT-S5YjUjoqXcTZulf-46" value="addThing(code, type)" style="text;strokeColor=none;fillColor=none;align=left;verticalAlign=middle;spacingLeft=4;spacingRight=4;overflow=hidden;points=[[0,0.5],[1,0.5]];portConstraint=eastwest;rotatable=0;whiteSpace=wrap;html=1;" parent="j-GT-S5YjUjoqXcTZulf-45" vertex="1">
                    <mxGeometry y="30" width="270" height="30" as="geometry"/>
                </mxCell>
                <mxCell id="j-GT-S5YjUjoqXcTZulf-47" value="getThing(id_thing)" style="text;strokeColor=none;fillColor=none;align=left;verticalAlign=middle;spacingLeft=4;spacingRight=4;overflow=hidden;points=[[0,0.5],[1,0.5]];portConstraint=eastwest;rotatable=0;whiteSpace=wrap;html=1;" parent="j-GT-S5YjUjoqXcTZulf-45" vertex="1">
                    <mxGeometry y="60" width="270" height="30" as="geometry"/>
                </mxCell>
                <mxCell id="j-GT-S5YjUjoqXcTZulf-48" value="getAllThing()" style="text;strokeColor=none;fillColor=none;align=left;verticalAlign=middle;spacingLeft=4;spacingRight=4;overflow=hidden;points=[[0,0.5],[1,0.5]];portConstraint=eastwest;rotatable=0;whiteSpace=wrap;html=1;" parent="j-GT-S5YjUjoqXcTZulf-45" vertex="1">
                    <mxGeometry y="90" width="270" height="30" as="geometry"/>
                </mxCell>
                <mxCell id="j-GT-S5YjUjoqXcTZulf-49" value="deleteThing(id_thing)" style="text;strokeColor=none;fillColor=none;align=left;verticalAlign=middle;spacingLeft=4;spacingRight=4;overflow=hidden;points=[[0,0.5],[1,0.5]];portConstraint=eastwest;rotatable=0;whiteSpace=wrap;html=1;" parent="j-GT-S5YjUjoqXcTZulf-45" vertex="1">
                    <mxGeometry y="120" width="270" height="30" as="geometry"/>
                </mxCell>
                <mxCell id="j-GT-S5YjUjoqXcTZulf-50" value="changeRoomThing(id_thing, id_from, id_to)" style="text;strokeColor=none;fillColor=none;align=left;verticalAlign=middle;spacingLeft=4;spacingRight=4;overflow=hidden;points=[[0,0.5],[1,0.5]];portConstraint=eastwest;rotatable=0;whiteSpace=wrap;html=1;" parent="j-GT-S5YjUjoqXcTZulf-45" vertex="1">
                    <mxGeometry y="150" width="270" height="30" as="geometry"/>
                </mxCell>
                <mxCell id="j-GT-S5YjUjoqXcTZulf-52" value="StudentServices" style="swimlane;fontStyle=0;childLayout=stackLayout;horizontal=1;startSize=30;horizontalStack=0;resizeParent=1;resizeParentMax=0;resizeLast=0;collapsible=1;marginBottom=0;whiteSpace=wrap;html=1;fillColor=#dae8fc;strokeColor=#6c8ebf;" parent="j-GT-S5YjUjoqXcTZulf-31" vertex="1">
                    <mxGeometry x="261" y="70" width="260" height="330" as="geometry"/>
                </mxCell>
                <mxCell id="j-GT-S5YjUjoqXcTZulf-53" value="addStudent(name, group, dataIn)" style="text;strokeColor=none;fillColor=none;align=left;verticalAlign=middle;spacingLeft=4;spacingRight=4;overflow=hidden;points=[[0,0.5],[1,0.5]];portConstraint=eastwest;rotatable=0;whiteSpace=wrap;html=1;" parent="j-GT-S5YjUjoqXcTZulf-52" vertex="1">
                    <mxGeometry y="30" width="260" height="30" as="geometry"/>
                </mxCell>
                <mxCell id="j-GT-S5YjUjoqXcTZulf-54" value="getStudent(id_student)" style="text;strokeColor=none;fillColor=none;align=left;verticalAlign=middle;spacingLeft=4;spacingRight=4;overflow=hidden;points=[[0,0.5],[1,0.5]];portConstraint=eastwest;rotatable=0;whiteSpace=wrap;html=1;" parent="j-GT-S5YjUjoqXcTZulf-52" vertex="1">
                    <mxGeometry y="60" width="260" height="30" as="geometry"/>
                </mxCell>
                <mxCell id="j-GT-S5YjUjoqXcTZulf-55" value="getAllStudent()" style="text;strokeColor=none;fillColor=none;align=left;verticalAlign=middle;spacingLeft=4;spacingRight=4;overflow=hidden;points=[[0,0.5],[1,0.5]];portConstraint=eastwest;rotatable=0;whiteSpace=wrap;html=1;" parent="j-GT-S5YjUjoqXcTZulf-52" vertex="1">
                    <mxGeometry y="90" width="260" height="30" as="geometry"/>
                </mxCell>
                <mxCell id="j-GT-S5YjUjoqXcTZulf-56" value="getRoomStudent(id_student)" style="text;strokeColor=none;fillColor=none;align=left;verticalAlign=middle;spacingLeft=4;spacingRight=4;overflow=hidden;points=[[0,0.5],[1,0.5]];portConstraint=eastwest;rotatable=0;whiteSpace=wrap;html=1;" parent="j-GT-S5YjUjoqXcTZulf-52" vertex="1">
                    <mxGeometry y="120" width="260" height="30" as="geometry"/>
                </mxCell>
                <mxCell id="j-GT-S5YjUjoqXcTZulf-57" value="changeNameStudent(id_student, new_name)" style="text;strokeColor=none;fillColor=none;align=left;verticalAlign=middle;spacingLeft=4;spacingRight=4;overflow=hidden;points=[[0,0.5],[1,0.5]];portConstraint=eastwest;rotatable=0;whiteSpace=wrap;html=1;" parent="j-GT-S5YjUjoqXcTZulf-52" vertex="1">
                    <mxGeometry y="150" width="260" height="30" as="geometry"/>
                </mxCell>
                <mxCell id="j-GT-S5YjUjoqXcTZulf-58" value="changeGroupStudent(id_student, new_group)" style="text;strokeColor=none;fillColor=none;align=left;verticalAlign=middle;spacingLeft=4;spacingRight=4;overflow=hidden;points=[[0,0.5],[1,0.5]];portConstraint=eastwest;rotatable=0;whiteSpace=wrap;html=1;" parent="j-GT-S5YjUjoqXcTZulf-52" vertex="1">
                    <mxGeometry y="180" width="260" height="30" as="geometry"/>
                </mxCell>
                <mxCell id="j-GT-S5YjUjoqXcTZulf-59" value="changeThingStudent(id_student, id_thing)" style="text;strokeColor=none;fillColor=none;align=left;verticalAlign=middle;spacingLeft=4;spacingRight=4;overflow=hidden;points=[[0,0.5],[1,0.5]];portConstraint=eastwest;rotatable=0;whiteSpace=wrap;html=1;" parent="j-GT-S5YjUjoqXcTZulf-52" vertex="1">
                    <mxGeometry y="210" width="260" height="30" as="geometry"/>
                </mxCell>
                <mxCell id="j-GT-S5YjUjoqXcTZulf-60" value="changeRoomStudent(id_student, id_room)" style="text;strokeColor=none;fillColor=none;align=left;verticalAlign=middle;spacingLeft=4;spacingRight=4;overflow=hidden;points=[[0,0.5],[1,0.5]];portConstraint=eastwest;rotatable=0;whiteSpace=wrap;html=1;" parent="j-GT-S5YjUjoqXcTZulf-52" vertex="1">
                    <mxGeometry y="240" width="260" height="30" as="geometry"/>
                </mxCell>
                <mxCell id="j-GT-S5YjUjoqXcTZulf-61" value="returnThingStudent(id_student, id_thing)" style="text;strokeColor=none;fillColor=none;align=left;verticalAlign=middle;spacingLeft=4;spacingRight=4;overflow=hidden;points=[[0,0.5],[1,0.5]];portConstraint=eastwest;rotatable=0;whiteSpace=wrap;html=1;" parent="j-GT-S5YjUjoqXcTZulf-52" vertex="1">
                    <mxGeometry y="270" width="260" height="30" as="geometry"/>
                </mxCell>
                <mxCell id="j-GT-S5YjUjoqXcTZulf-62" value="deleteStudent(id_student)" style="text;strokeColor=none;fillColor=none;align=left;verticalAlign=middle;spacingLeft=4;spacingRight=4;overflow=hidden;points=[[0,0.5],[1,0.5]];portConstraint=eastwest;rotatable=0;whiteSpace=wrap;html=1;" parent="j-GT-S5YjUjoqXcTZulf-52" vertex="1">
                    <mxGeometry y="300" width="260" height="30" as="geometry"/>
                </mxCell>
                <mxCell id="j-GT-S5YjUjoqXcTZulf-63" value="Business Logic" style="text;html=1;align=center;verticalAlign=middle;resizable=0;points=[];autosize=1;strokeColor=none;fillColor=none;fontSize=16;fontStyle=1" parent="j-GT-S5YjUjoqXcTZulf-31" vertex="1">
                    <mxGeometry x="490" y="15" width="140" height="30" as="geometry"/>
                </mxCell>
                <mxCell id="j-GT-S5YjUjoqXcTZulf-64" value="Room" style="swimlane;fontStyle=0;childLayout=stackLayout;horizontal=1;startSize=30;horizontalStack=0;resizeParent=1;resizeParentMax=0;resizeLast=0;collapsible=1;marginBottom=0;whiteSpace=wrap;html=1;fillColor=#dae8fc;strokeColor=#6c8ebf;" parent="j-GT-S5YjUjoqXcTZulf-31" vertex="1">
                    <mxGeometry x="1161" y="190" width="140" height="120" as="geometry"/>
                </mxCell>
                <mxCell id="j-GT-S5YjUjoqXcTZulf-65" value="id_room: int" style="text;strokeColor=none;fillColor=none;align=left;verticalAlign=middle;spacingLeft=4;spacingRight=4;overflow=hidden;points=[[0,0.5],[1,0.5]];portConstraint=eastwest;rotatable=0;whiteSpace=wrap;html=1;" parent="j-GT-S5YjUjoqXcTZulf-64" vertex="1">
                    <mxGeometry y="30" width="140" height="30" as="geometry"/>
                </mxCell>
                <mxCell id="j-GT-S5YjUjoqXcTZulf-66" value="number: int" style="text;strokeColor=none;fillColor=none;align=left;verticalAlign=middle;spacingLeft=4;spacingRight=4;overflow=hidden;points=[[0,0.5],[1,0.5]];portConstraint=eastwest;rotatable=0;whiteSpace=wrap;html=1;" parent="j-GT-S5YjUjoqXcTZulf-64" vertex="1">
                    <mxGeometry y="60" width="140" height="30" as="geometry"/>
                </mxCell>
                <mxCell id="j-GT-S5YjUjoqXcTZulf-67" value="type: string" style="text;strokeColor=none;fillColor=none;align=left;verticalAlign=middle;spacingLeft=4;spacingRight=4;overflow=hidden;points=[[0,0.5],[1,0.5]];portConstraint=eastwest;rotatable=0;whiteSpace=wrap;html=1;" parent="j-GT-S5YjUjoqXcTZulf-64" vertex="1">
                    <mxGeometry y="90" width="140" height="30" as="geometry"/>
                </mxCell>
                <mxCell id="j-GT-S5YjUjoqXcTZulf-68" value="Thing" style="swimlane;fontStyle=0;childLayout=stackLayout;horizontal=1;startSize=30;horizontalStack=0;resizeParent=1;resizeParentMax=0;resizeLast=0;collapsible=1;marginBottom=0;whiteSpace=wrap;html=1;fillColor=#dae8fc;strokeColor=#6c8ebf;" parent="j-GT-S5YjUjoqXcTZulf-31" vertex="1">
                    <mxGeometry x="1341" y="190" width="140" height="120" as="geometry"/>
                </mxCell>
                <mxCell id="j-GT-S5YjUjoqXcTZulf-69" value="id_thing: int" style="text;strokeColor=none;fillColor=none;align=left;verticalAlign=middle;spacingLeft=4;spacingRight=4;overflow=hidden;points=[[0,0.5],[1,0.5]];portConstraint=eastwest;rotatable=0;whiteSpace=wrap;html=1;" parent="j-GT-S5YjUjoqXcTZulf-68" vertex="1">
                    <mxGeometry y="30" width="140" height="30" as="geometry"/>
                </mxCell>
                <mxCell id="j-GT-S5YjUjoqXcTZulf-70" value="code: int" style="text;strokeColor=none;fillColor=none;align=left;verticalAlign=middle;spacingLeft=4;spacingRight=4;overflow=hidden;points=[[0,0.5],[1,0.5]];portConstraint=eastwest;rotatable=0;whiteSpace=wrap;html=1;" parent="j-GT-S5YjUjoqXcTZulf-68" vertex="1">
                    <mxGeometry y="60" width="140" height="30" as="geometry"/>
                </mxCell>
                <mxCell id="j-GT-S5YjUjoqXcTZulf-71" value="type: string" style="text;strokeColor=none;fillColor=none;align=left;verticalAlign=middle;spacingLeft=4;spacingRight=4;overflow=hidden;points=[[0,0.5],[1,0.5]];portConstraint=eastwest;rotatable=0;whiteSpace=wrap;html=1;" parent="j-GT-S5YjUjoqXcTZulf-68" vertex="1">
                    <mxGeometry y="90" width="140" height="30" as="geometry"/>
                </mxCell>
                <mxCell id="j-GT-S5YjUjoqXcTZulf-72" value="User" style="swimlane;fontStyle=0;childLayout=stackLayout;horizontal=1;startSize=30;horizontalStack=0;resizeParent=1;resizeParentMax=0;resizeLast=0;collapsible=1;marginBottom=0;whiteSpace=wrap;html=1;fillColor=#dae8fc;strokeColor=#6c8ebf;" parent="j-GT-S5YjUjoqXcTZulf-31" vertex="1">
                    <mxGeometry x="1791" y="190" width="140" height="120" as="geometry"/>
                </mxCell>
                <mxCell id="j-GT-S5YjUjoqXcTZulf-73" value="id: int" style="text;strokeColor=none;fillColor=none;align=left;verticalAlign=middle;spacingLeft=4;spacingRight=4;overflow=hidden;points=[[0,0.5],[1,0.5]];portConstraint=eastwest;rotatable=0;whiteSpace=wrap;html=1;" parent="j-GT-S5YjUjoqXcTZulf-72" vertex="1">
                    <mxGeometry y="30" width="140" height="30" as="geometry"/>
                </mxCell>
                <mxCell id="j-GT-S5YjUjoqXcTZulf-74" value="login: string" style="text;strokeColor=none;fillColor=none;align=left;verticalAlign=middle;spacingLeft=4;spacingRight=4;overflow=hidden;points=[[0,0.5],[1,0.5]];portConstraint=eastwest;rotatable=0;whiteSpace=wrap;html=1;" parent="j-GT-S5YjUjoqXcTZulf-72" vertex="1">
                    <mxGeometry y="60" width="140" height="30" as="geometry"/>
                </mxCell>
                <mxCell id="j-GT-S5YjUjoqXcTZulf-75" value="password: string" style="text;strokeColor=none;fillColor=none;align=left;verticalAlign=middle;spacingLeft=4;spacingRight=4;overflow=hidden;points=[[0,0.5],[1,0.5]];portConstraint=eastwest;rotatable=0;whiteSpace=wrap;html=1;" parent="j-GT-S5YjUjoqXcTZulf-72" vertex="1">
                    <mxGeometry y="90" width="140" height="30" as="geometry"/>
                </mxCell>
                <mxCell id="j-GT-S5YjUjoqXcTZulf-76" value="Student" style="swimlane;fontStyle=0;childLayout=stackLayout;horizontal=1;startSize=30;horizontalStack=0;resizeParent=1;resizeParentMax=0;resizeLast=0;collapsible=1;marginBottom=0;whiteSpace=wrap;html=1;fillColor=#dae8fc;strokeColor=#6c8ebf;" parent="j-GT-S5YjUjoqXcTZulf-31" vertex="1">
                    <mxGeometry x="1571" y="190" width="140" height="150" as="geometry"/>
                </mxCell>
                <mxCell id="j-GT-S5YjUjoqXcTZulf-77" value="id_student: int" style="text;strokeColor=none;fillColor=none;align=left;verticalAlign=middle;spacingLeft=4;spacingRight=4;overflow=hidden;points=[[0,0.5],[1,0.5]];portConstraint=eastwest;rotatable=0;whiteSpace=wrap;html=1;" parent="j-GT-S5YjUjoqXcTZulf-76" vertex="1">
                    <mxGeometry y="30" width="140" height="30" as="geometry"/>
                </mxCell>
                <mxCell id="j-GT-S5YjUjoqXcTZulf-78" value="name: string" style="text;strokeColor=none;fillColor=none;align=left;verticalAlign=middle;spacingLeft=4;spacingRight=4;overflow=hidden;points=[[0,0.5],[1,0.5]];portConstraint=eastwest;rotatable=0;whiteSpace=wrap;html=1;" parent="j-GT-S5YjUjoqXcTZulf-76" vertex="1">
                    <mxGeometry y="60" width="140" height="30" as="geometry"/>
                </mxCell>
                <mxCell id="j-GT-S5YjUjoqXcTZulf-79" value="group: string" style="text;strokeColor=none;fillColor=none;align=left;verticalAlign=middle;spacingLeft=4;spacingRight=4;overflow=hidden;points=[[0,0.5],[1,0.5]];portConstraint=eastwest;rotatable=0;whiteSpace=wrap;html=1;" parent="j-GT-S5YjUjoqXcTZulf-76" vertex="1">
                    <mxGeometry y="90" width="140" height="30" as="geometry"/>
                </mxCell>
                <mxCell id="j-GT-S5YjUjoqXcTZulf-80" value="dataIn: data" style="text;strokeColor=none;fillColor=none;align=left;verticalAlign=middle;spacingLeft=4;spacingRight=4;overflow=hidden;points=[[0,0.5],[1,0.5]];portConstraint=eastwest;rotatable=0;whiteSpace=wrap;html=1;" parent="j-GT-S5YjUjoqXcTZulf-76" vertex="1">
                    <mxGeometry y="120" width="140" height="30" as="geometry"/>
                </mxCell>
            </root>
        </mxGraphModel>
    </diagram>
</mxfile>